<svg width="42" height="43" viewBox="0 0 42 43" fill="none" xmlns="http://www.w3.org/2000/svg">
<path d="M22.5689 17.6927C22.4393 17.6431 22.262 17.6431 22.1307 17.6893C21.5953 17.8742 21.0736 17.8776 20.5399 17.6859C20.4172 17.6414 20.2518 17.6414 20.1307 17.6859C19.4539 17.9324 18.9253 18.3741 18.5161 18.9905C20.1376 20.7403 22.9354 20.4629 24.146 18.9699C23.7538 18.3776 23.2304 17.9444 22.5689 17.6927Z" fill="#04AA6D"/>
<path d="M21.3259 16.8897C21.9738 16.8966 22.5092 16.3692 22.5109 15.7221C22.5126 15.092 21.9926 14.5578 21.3634 14.5441C20.7207 14.5305 20.1785 15.0526 20.1631 15.6998C20.1478 16.3418 20.678 16.8846 21.3259 16.8897Z" fill="#04AA6D"/>
<path d="M19.1572 32.0007C19.2766 31.9698 19.4044 31.9698 19.5289 31.9698C21.7198 31.9681 23.909 31.9681 26.0999 31.9681C26.2346 31.9681 26.3727 31.9715 26.5057 31.9493C26.8279 31.8962 27.0496 31.6154 27.0462 31.2799C27.0428 30.9443 26.8177 30.6704 26.4904 30.6241C26.3676 30.607 26.2414 30.6087 26.1153 30.6087C24.3745 30.6087 22.632 30.6087 20.8895 30.6087C19.3771 30.6087 17.8648 30.6053 16.3525 30.6121C15.899 30.6139 15.6228 30.8878 15.6262 31.297C15.6296 31.6908 15.9024 31.951 16.3372 31.9681C16.5776 31.9767 16.818 31.963 17.0567 31.975C17.355 31.9904 17.5477 32.1787 17.5528 32.4372C17.5579 32.7095 17.3619 32.8978 17.043 32.9115C16.7822 32.9218 16.5196 32.9012 16.2621 32.9252C15.8035 32.968 15.5324 33.3652 15.6483 33.7949C15.7319 34.1031 15.9996 34.2829 16.3985 34.2829C18.0456 34.2846 19.6943 34.2829 21.3413 34.2846C21.9261 34.2846 22.5092 34.2846 23.094 34.2846C24.1784 34.2846 25.2628 34.288 26.3471 34.2812C26.758 34.2777 27.0308 34.0089 27.0428 33.6288C27.0547 33.2453 26.8007 32.9646 26.3983 32.9218C26.2943 32.9115 26.1903 32.9149 26.0863 32.9149C23.9073 32.9149 21.7266 32.9149 19.5476 32.9149C19.4334 32.9149 19.3158 32.9183 19.2049 32.8995C18.9697 32.8601 18.8367 32.7112 18.8247 32.4715C18.8128 32.2284 18.9253 32.0606 19.1572 32.0007Z" fill="#04AA6D"/>
<path d="M17.2885 35.2416C17.2391 35.9213 17.6943 36.4624 18.349 36.4675C20.3387 36.4795 22.3268 36.4778 24.3165 36.4675C24.9729 36.4641 25.4247 35.935 25.3855 35.2416C22.6729 35.2416 19.9807 35.2416 17.2885 35.2416Z" fill="#04AA6D"/>
<path d="M16.1666 29.6328C16.3082 29.6602 16.4565 29.6619 16.6014 29.6619C19.7573 29.6637 22.9133 29.6637 26.0692 29.6619C26.2141 29.6619 26.3625 29.6602 26.504 29.6328C26.8501 29.5661 27.0581 29.2853 27.0428 28.9326C27.024 28.5354 26.741 28.2923 26.2721 28.2923C24.6268 28.2888 22.9798 28.2906 21.3345 28.2906C19.9074 28.2906 18.4803 28.2906 17.0532 28.2906C16.7821 28.2906 16.5111 28.282 16.2417 28.2991C15.8921 28.3214 15.6432 28.5902 15.6279 28.9326C15.6125 29.287 15.8205 29.5661 16.1666 29.6328Z" fill="#04AA6D"/>
<path d="M23.9124 13.1899C22.3813 11.8562 20.0881 11.9195 18.5911 13.3491C16.9714 14.8968 17.1913 17.1534 17.8819 18.1207C18.4121 17.6978 18.9458 17.2715 19.5118 16.8212C19.0481 15.6022 19.2135 14.6999 20.0506 14.0459C20.7803 13.4758 21.7999 13.4553 22.5586 13.9963C23.4367 14.6246 23.6106 15.4755 23.1469 16.876C23.435 17.0661 23.7351 17.2338 24.0028 17.4478C24.2756 17.6653 24.5143 17.9255 24.7683 18.1669C25.5356 17.0164 25.6651 14.7154 23.9124 13.1899Z" fill="#04AA6D"/>
<path d="M21.3396 0.590637C9.93492 0.590637 0.688782 9.8753 0.688782 21.3275C0.688782 32.7796 9.93492 42.0643 21.3396 42.0643C32.7459 42.0643 41.9904 32.7796 41.9904 21.3275C41.9904 9.8753 32.7459 0.590637 21.3396 0.590637ZM28.6045 25.1129C28.5772 25.1574 28.5414 25.1968 28.5159 25.2413C28.1067 25.945 27.6975 26.6487 27.2917 27.354C27.2559 27.4157 27.2371 27.4876 27.2133 27.5492C28.1442 28.3984 28.2448 29.1928 27.6088 30.0249C27.7469 30.482 27.9123 30.8724 27.9737 31.2816C28.0385 31.7147 27.8253 32.0948 27.5423 32.4184C28.3795 33.872 27.8987 35.0396 26.3642 35.2416C26.3522 35.3683 26.3471 35.5019 26.325 35.6337C26.1732 36.4966 25.6822 37.065 24.8536 37.3389C24.7871 37.3612 24.7206 37.3903 24.6558 37.416C22.4444 37.416 20.233 37.416 18.0234 37.416C17.8324 37.3389 17.6329 37.2773 17.4505 37.1849C16.7549 36.8305 16.4412 36.2911 16.3082 35.2433C15.633 35.1903 15.0942 34.8941 14.8214 34.2418C14.5503 33.5912 14.6799 32.9919 15.1505 32.4509C14.8657 32.1119 14.6833 31.737 14.6867 31.285C14.6901 30.8433 14.8572 30.4735 15.1368 30.1516C14.4446 29.0661 14.5316 28.3813 15.5136 27.515C15.142 26.8729 14.8061 26.1847 14.3713 25.5666C13.8376 24.8082 13.2221 24.1062 12.6424 23.3803C9.40297 19.3243 9.40638 13.5392 12.6476 9.46611C12.9169 9.12712 13.1642 9.05521 13.4097 9.24525C13.6501 9.43187 13.645 9.71779 13.3892 10.0414C12.223 11.5172 11.4882 13.1831 11.2512 15.0544C10.8676 18.0745 11.6553 20.7676 13.6228 23.0772C14.6935 24.3339 15.6671 25.6419 16.3303 27.1623C16.4053 27.3318 16.5128 27.3557 16.6713 27.3557C19.7897 27.3523 22.9082 27.3506 26.0266 27.3575C26.2192 27.3575 26.284 27.2719 26.3693 27.1212C26.8501 26.2669 27.3394 25.4159 27.8475 24.577C28.0112 24.3065 28.3044 24.2654 28.5227 24.4229C28.746 24.5822 28.7784 24.8407 28.6045 25.1129ZM28.4102 18.1259C28.1152 18.1344 27.9941 18.2577 27.9055 18.5214C27.793 18.8569 27.6395 19.1788 27.4826 19.4973C27.3855 19.6924 27.3906 19.8294 27.5491 19.9972C28.0487 20.5314 28.0316 21.1734 27.5202 21.699C27.2371 21.9918 26.9507 22.2828 26.6574 22.5636C26.1596 23.0396 25.4997 23.0516 25.0053 22.5705C24.816 22.3855 24.6643 22.3582 24.4307 22.478C24.117 22.6372 23.7845 22.7673 23.4503 22.8803C23.2389 22.9505 23.1503 23.0498 23.1469 23.281C23.1349 24.0617 22.6626 24.5154 21.8835 24.5222C21.5084 24.5257 21.1333 24.5274 20.7582 24.5222C20.0199 24.512 19.5391 24.0429 19.5323 23.3067C19.5306 23.0687 19.4522 22.954 19.222 22.8786C18.8776 22.7656 18.5417 22.6167 18.2126 22.4626C18.0166 22.3701 17.8785 22.3753 17.7131 22.5345C17.1504 23.0721 16.5179 23.0584 15.9706 22.5191C15.6875 22.24 15.4062 21.9609 15.1317 21.675C14.6509 21.1734 14.6356 20.5245 15.1113 20.0194C15.2732 19.8465 15.2988 19.7061 15.1931 19.4938C15.0209 19.1497 14.8709 18.7919 14.7362 18.4306C14.6646 18.2372 14.5674 18.1481 14.356 18.1361C13.6075 18.0916 13.1983 17.655 13.188 16.9069C13.1829 16.4994 13.1795 16.0902 13.1897 15.6827C13.2051 15.0373 13.5955 14.587 14.2332 14.5271C14.5111 14.5014 14.6236 14.3815 14.7038 14.1316C14.8214 13.7652 14.9783 13.4108 15.1351 13.0581C15.2136 12.8852 15.2084 12.7619 15.0789 12.6061C14.6339 12.0702 14.6611 11.4675 15.1385 10.971C15.4284 10.6697 15.7234 10.3735 16.0234 10.0842C16.4838 9.64246 17.0873 9.60308 17.5801 10.0037C17.7574 10.1475 17.8904 10.139 18.0831 10.0465C18.4581 9.86674 18.8452 9.71265 19.2339 9.56541C19.4198 9.49522 19.5118 9.40277 19.5357 9.18876C19.6073 8.54843 20.0796 8.14609 20.7292 8.13924C21.135 8.13411 21.5425 8.13411 21.9483 8.13924C22.5979 8.1478 23.0667 8.55015 23.1383 9.19218C23.1622 9.40961 23.2611 9.49351 23.4452 9.5637C23.8425 9.71608 24.2363 9.88215 24.6217 10.0636C24.7939 10.1441 24.9149 10.1475 25.0718 10.0208C25.6003 9.59966 26.1886 9.63732 26.6762 10.1099C26.9609 10.3855 27.2405 10.668 27.5167 10.9539C28.0112 11.4641 28.0299 12.0531 27.6054 12.6215C27.5304 12.7208 27.5048 12.9108 27.544 13.0307C27.6821 13.445 27.8475 13.8525 28.0299 14.2514C28.0794 14.3593 28.2141 14.4808 28.3266 14.4997C29.1518 14.6383 29.4877 15.015 29.4911 15.8488C29.4911 16.0063 29.4911 16.1621 29.4911 16.3196C29.4894 16.3196 29.4877 16.3196 29.4877 16.3196C29.4877 16.561 29.4979 16.8024 29.486 17.0421C29.4536 17.6431 29.012 18.1087 28.4102 18.1259ZM30.1134 23.2741C29.8764 23.5891 29.6071 23.6525 29.3701 23.4625C29.1416 23.2793 29.1416 23.0002 29.382 22.6886C30.867 20.7488 31.5848 18.5522 31.5183 16.1107C31.3785 11.0755 27.5577 6.85175 22.5996 6.26279C19.8682 5.9375 17.3925 6.61206 15.188 8.27279C15.13 8.3173 15.0738 8.36524 15.0141 8.40633C14.7583 8.5861 14.4821 8.56213 14.3184 8.34812C14.1479 8.12726 14.1735 7.84476 14.4463 7.66671C15.1965 7.17876 15.9331 6.65657 16.731 6.26108C18.17 5.54371 19.7232 5.24581 21.0975 5.24067C26.6983 5.26293 31.2694 9.02611 32.2583 14.3062C32.8738 17.5985 32.1236 20.5981 30.1134 23.2741Z" fill="#04AA6D"/>
<path d="M28.2089 15.4345C27.6548 15.4019 27.3172 15.0921 27.1382 14.575C27.012 14.2103 26.8825 13.8439 26.712 13.4981C26.4494 12.9622 26.4511 12.4726 26.8637 12.0189C27.0103 11.8579 26.9728 11.7261 26.8296 11.5874C26.567 11.3323 26.3079 11.0738 26.0555 10.8101C25.9021 10.6492 25.7674 10.6509 25.5969 10.7913C25.1724 11.1423 24.7171 11.1542 24.2278 10.9128C23.8749 10.7382 23.5083 10.5824 23.1366 10.4523C22.603 10.2657 22.2637 9.93524 22.2142 9.35313C22.1972 9.15966 22.1 9.07406 21.9107 9.07577C21.5254 9.07919 21.1384 9.07748 20.753 9.07577C20.5587 9.07406 20.4751 9.17165 20.4581 9.36169C20.4069 9.91127 20.1 10.2486 19.5868 10.4335C19.1964 10.5738 18.8094 10.7348 18.436 10.918C17.9449 11.1577 17.4897 11.1406 17.0669 10.7861C16.893 10.6406 16.76 10.6577 16.6099 10.8153C16.3661 11.0738 16.1155 11.3255 15.858 11.5703C15.6892 11.7295 15.6671 11.8665 15.8307 12.0497C16.2007 12.464 16.2212 12.9228 15.9961 13.4193C15.8376 13.7703 15.6875 14.1281 15.5665 14.4945C15.3789 15.0561 15.0396 15.4139 14.4241 15.4413C14.2008 15.4516 14.1121 15.5629 14.1172 15.782C14.1258 16.1279 14.1292 16.4737 14.1155 16.8178C14.107 17.0764 14.1871 17.1945 14.4685 17.2048C15.0413 17.2236 15.4096 17.5318 15.5989 18.0779C15.7148 18.4118 15.858 18.7388 16.0149 19.0573C16.3252 19.6856 16.2911 20.0845 15.829 20.605C15.679 20.7745 15.6722 20.9029 15.8342 21.0587C16.0677 21.283 16.2928 21.5175 16.5213 21.747C16.8231 22.0483 16.8265 22.026 17.1589 21.7743C17.3891 21.5997 17.6721 21.497 17.9057 21.3737C18.1785 21.4662 18.378 21.5227 18.569 21.598C18.8878 21.723 19.1981 21.8736 19.522 21.9884C20.1716 22.2195 20.4359 22.5465 20.4547 23.233C20.4615 23.495 20.5774 23.5857 20.8195 23.5806C21.1537 23.5738 21.4879 23.5703 21.8204 23.5823C22.0983 23.5926 22.2108 23.4864 22.2125 23.1971C22.2176 22.579 22.5041 22.2195 23.0906 22.0089C23.3941 21.901 23.7027 21.7949 23.9874 21.6459C24.5859 21.3309 25.1246 21.3549 25.6088 21.8582C25.7538 22.0089 25.8953 22.0021 26.0402 21.8531C26.2891 21.5997 26.5347 21.3429 26.7938 21.0998C26.9848 20.9217 27.0018 20.7779 26.8109 20.5759C26.388 20.1239 26.3488 19.6736 26.6267 19.1069C26.7733 18.8073 26.9234 18.5043 27.024 18.1875C27.2218 17.5677 27.602 17.2082 28.2669 17.1979C28.4664 17.1945 28.5482 17.0969 28.5465 16.9052C28.5448 16.5388 28.538 16.1724 28.5499 15.806C28.5636 15.5509 28.4562 15.4499 28.2089 15.4345ZM21.3106 21.1443C18.615 21.134 16.4326 18.9289 16.4343 16.2152C16.436 13.4947 18.644 11.2775 21.3481 11.2861C24.0556 11.2929 26.2499 13.5152 26.2397 16.2374C26.2295 18.9597 24.0266 21.1529 21.3106 21.1443Z" fill="#04AA6D"/>
</svg>
