<svg width="212" height="70" viewBox="0 0 212 70" fill="none" xmlns="http://www.w3.org/2000/svg">
<path d="M211.284 59.9688C211.284 65.1453 207.109 69.3386 201.954 69.3386H9.51349C4.36249 69.3426 0.182617 65.1453 0.182617 59.9688V9.36975C0.182617 4.19729 4.36249 0 9.51349 0H201.954C207.105 0 211.284 4.19729 211.284 9.36975V59.9688Z" fill="black"/>
<path d="M55.2332 45.8331C54.1164 48.3198 53.5823 49.429 52.1418 51.6272C50.1348 54.6949 47.3024 58.5184 43.7983 58.5509C40.6826 58.5793 39.8814 56.5152 35.653 56.5396C31.4245 56.564 30.5424 58.5875 27.4268 58.559C23.9226 58.5265 21.2399 55.0769 19.2329 52.0051C13.6166 43.4236 13.0339 33.3509 16.4935 27.9997C18.9537 24.1924 22.8342 21.9658 26.484 21.9658C30.1985 21.9658 32.5373 24.0137 35.6085 24.0137C38.5906 24.0137 40.4074 21.9658 44.7006 21.9658C47.9498 21.9658 51.3892 23.7414 53.8413 26.8132C45.8093 31.2299 47.1163 42.7532 55.2332 45.8331Z" fill="white"/>
<path d="M41.4434 18.5369C43.0053 16.5257 44.1909 13.6814 43.7579 10.7803C41.2087 10.955 38.2266 12.5843 36.4826 14.7094C34.9005 16.6394 33.5976 19.4958 34.1034 22.2751C36.8913 22.3604 39.7723 20.6945 41.4434 18.5369Z" fill="white"/>
<path d="M72.3371 27.8701L64.293 51.6399H67.9751L70.3746 44.3423H78.1598L80.6281 51.6399H84.4114L76.3349 27.8701H72.3371ZM74.2429 31.7789C74.514 32.8394 74.8094 33.9405 75.1857 35.1311L77.3546 41.4331H71.1879L73.3244 35.0904C73.6481 34.0624 73.9556 32.9532 74.2429 31.7789Z" fill="white"/>
<path d="M94.8223 34.0332C92.3824 34.0332 90.428 34.9799 89.1291 36.7759L88.9875 34.4111H85.71L85.7302 34.7118C85.8273 36.1827 85.8678 37.8079 85.8678 40.1321V58.4531H89.4488V49.9041C90.5615 51.2409 92.3338 52.0169 94.3449 52.0169C96.4368 52.0169 98.3669 51.1921 99.771 49.7009C101.341 48.035 102.166 45.6418 102.166 42.7813C102.166 40.254 101.446 38.068 100.087 36.463C98.7554 34.8987 96.886 34.0332 94.8223 34.0332ZM93.9321 37.0115C97.1247 37.0115 98.5531 39.9817 98.5531 42.9235C98.5531 46.7185 96.7282 49.0793 93.7946 49.0793C91.7916 49.0793 90.0598 47.71 89.5742 45.7434C89.4892 45.4386 89.4488 45.0364 89.4488 44.5772V41.6842C89.4488 41.4242 89.5054 41.1032 89.5621 40.7984C89.5783 40.7009 89.5985 40.6034 89.6147 40.5059C90.1488 38.4458 91.9211 37.0115 93.9321 37.0115Z" fill="white"/>
<path d="M113.266 34.0332C110.826 34.0332 108.871 34.9799 107.573 36.7759L107.431 34.4111H104.157L104.174 34.7118C104.271 36.1867 104.311 37.8079 104.311 40.1321V58.4531H107.892V49.9041C109.005 51.2409 110.777 52.0169 112.788 52.0169C114.88 52.0169 116.81 51.1921 118.219 49.7009C119.784 48.035 120.614 45.6418 120.614 42.7813C120.614 40.254 119.894 38.068 118.53 36.463C117.199 34.8987 115.329 34.0332 113.266 34.0332ZM112.376 37.0115C115.568 37.0115 116.997 39.9817 116.997 42.9235C116.997 46.7185 115.172 49.0793 112.238 49.0793C110.235 49.0793 108.499 47.71 108.018 45.7434C107.933 45.4386 107.892 45.0364 107.892 44.5772V41.6842C107.892 41.4201 107.949 41.1032 108.006 40.7944C108.022 40.6969 108.042 40.5993 108.058 40.5059C108.592 38.4458 110.365 37.0115 112.376 37.0115Z" fill="white"/>
<path d="M136.375 37.9418C133.032 36.6415 131.96 35.6217 131.96 33.7323C131.96 32.1436 133.218 30.5386 136.031 30.5386C138.349 30.5386 139.834 31.3472 140.235 31.5991L140.538 31.786L141.55 28.7833L141.352 28.6655C140.753 28.312 139.041 27.4912 136.136 27.4912C131.567 27.4912 128.379 30.1973 128.379 34.0736C128.379 37.1982 130.378 39.3842 134.667 40.9485C137.706 42.0903 138.839 43.2564 138.839 45.2596C138.839 47.5269 137.095 48.9327 134.287 48.9327C132.458 48.9327 130.576 48.3964 129.123 47.4619L128.812 47.2627L127.849 50.3345L128.027 50.4524C129.378 51.3585 131.924 52.0167 134.08 52.0167C140.235 52.0167 142.42 48.2461 142.42 45.0199C142.416 41.6962 140.664 39.6442 136.375 37.9418Z" fill="white"/>
<path d="M148.862 30.3154L145.349 31.4247V34.4111H142.776V37.2838H145.349V46.0888C145.349 48.2179 145.754 49.7091 146.588 50.6518C147.389 51.5335 148.619 52.017 150.051 52.017C151.407 52.017 152.366 51.7488 152.819 51.5863L153.021 51.5132L152.851 48.6323L152.507 48.738C152.054 48.8761 151.589 48.933 150.84 48.933C149.452 48.933 148.862 48.0513 148.862 45.9831V37.2838H153.183V34.4111H148.862V30.3154Z" fill="white"/>
<path d="M162.057 34.0332C157.047 34.0332 153.547 37.7876 153.547 43.1632C153.547 48.3763 156.934 52.021 161.785 52.021H161.818C165.917 52.021 170.327 49.1524 170.327 42.8544C170.327 40.2946 169.538 38.0964 168.045 36.4915C166.544 34.8824 164.472 34.0332 162.057 34.0332ZM161.955 36.8734C165.176 36.8734 166.645 40.0264 166.645 42.9601C166.645 46.5641 164.642 49.1808 161.887 49.1808H161.85C159.135 49.1808 157.161 46.6088 157.161 43.0617C157.165 39.9817 158.646 36.8734 161.955 36.8734Z" fill="white"/>
<path d="M181.297 34.1998L181.082 34.147C180.767 34.0698 180.508 34.0332 180.192 34.0332C178.319 34.0332 176.636 35.1425 175.701 36.9303L175.596 34.4151H172.383L172.403 34.7158C172.5 36.1379 172.537 37.7388 172.537 39.8964L172.504 51.6472H176.085V42.4806C176.085 41.9808 176.118 41.5095 176.182 41.0869C176.587 38.8847 178.064 37.4625 179.949 37.4625C180.318 37.4625 180.605 37.491 180.913 37.5235L181.297 37.5641V34.1998Z" fill="white"/>
<path d="M189.349 33.9971C184.583 33.9971 181.252 37.8205 181.252 43.3018C181.252 48.5758 184.566 51.9849 189.693 51.9849C192.388 51.9849 194.265 51.3917 195.362 50.8919L195.577 50.7943L194.889 48.1126L194.589 48.2345C193.614 48.6327 192.315 49.039 190.102 49.039C188.544 49.039 184.959 48.523 184.736 43.826L196.297 43.8625L196.345 43.6309C196.418 43.2652 196.455 42.7736 196.455 42.1316C196.455 38.3813 194.593 33.9971 189.349 33.9971ZM189.11 36.7357C190.203 36.7357 191.085 37.0729 191.741 37.7433C192.772 38.7957 192.95 40.3478 192.975 41.0914H184.805C185.141 39.0151 186.432 36.7357 189.11 36.7357Z" fill="white"/>
<path d="M64.2929 11.6329C65.2923 11.4989 66.4536 11.4014 67.7282 11.4014C70.0387 11.4014 71.6815 11.8686 72.77 12.7869C73.8948 13.7052 74.5423 15.0217 74.5423 16.842C74.5423 18.6785 73.8948 20.1779 72.7497 21.214C71.5682 22.2664 69.6462 22.8352 67.2265 22.8352C66.0611 22.8352 65.1224 22.8027 64.2888 22.7011V11.6329H64.2929ZM65.9195 21.5959C66.3241 21.6609 66.9149 21.661 67.5461 21.661C70.9815 21.6772 72.8468 19.926 72.8468 16.8867C72.8671 14.2009 71.204 12.5472 67.8051 12.5472C66.9756 12.5472 66.3444 12.6163 65.9195 12.6975V21.5959Z" fill="white"/>
<path d="M80.3041 22.9161C77.9006 22.9161 76.019 21.3152 76.019 18.7595C76.019 16.0534 77.9937 14.4688 80.4498 14.4688C83.0192 14.4688 84.7551 16.155 84.7551 18.6092C84.7551 21.6119 82.4446 22.9161 80.3244 22.9161H80.3041ZM80.3608 21.815C81.9105 21.815 83.0759 20.4945 83.0759 18.662C83.0759 17.2927 82.3192 15.5739 80.3972 15.5739C78.4954 15.5739 77.6619 17.1748 77.6619 18.7107C77.6619 20.4782 78.7706 21.815 80.3405 21.815H80.3608Z" fill="white"/>
<path d="M87.3287 14.6514L88.5304 18.743C88.7692 19.645 89.012 20.4943 89.1779 21.3313H89.2345C89.4368 20.5146 89.7322 19.645 90.0276 18.7593L91.4883 14.6514H92.856L94.2398 18.6902C94.5716 19.641 94.8306 20.5105 95.0329 21.3272H95.0896C95.2393 20.5105 95.478 19.6572 95.7734 18.7064L97.048 14.6514H98.6544L95.7734 22.729H94.2965L92.9288 18.873C92.6132 17.9547 92.3542 17.1543 92.1357 16.2035H92.0993C91.8768 17.1705 91.6016 18.0238 91.286 18.8893L89.8455 22.729H88.3686L85.6697 14.6514H87.3287Z" fill="white"/>
<path d="M100.277 16.8415C100.277 15.9882 100.257 15.3218 100.204 14.6555H101.645L101.738 15.976H101.774C102.219 15.2243 103.251 14.4727 104.728 14.4727C105.966 14.4727 107.888 15.139 107.888 17.9101V22.7331H106.266V18.0767C106.266 16.7765 105.727 15.6753 104.198 15.6753C103.146 15.6753 102.312 16.358 102.017 17.1787C101.944 17.3616 101.908 17.6298 101.908 17.8614V22.7372H100.281V16.8415H100.277Z" fill="white"/>
<path d="M110.526 10.8809H112.153V22.7332H110.526V10.8809Z" fill="white"/>
<path d="M118.489 22.9161C116.09 22.9161 114.204 21.3152 114.204 18.7595C114.204 16.0534 116.179 14.4688 118.639 14.4688C121.205 14.4688 122.94 16.155 122.94 18.6092C122.94 21.6119 120.63 22.9161 118.506 22.9161H118.489ZM118.546 21.815C120.096 21.815 121.261 20.4945 121.261 18.662C121.261 17.2927 120.504 15.5739 118.582 15.5739C116.681 15.5739 115.847 17.1748 115.847 18.7107C115.847 20.4782 116.956 21.815 118.526 21.815H118.546Z" fill="white"/>
<path d="M131.292 20.795C131.292 21.4939 131.329 22.1805 131.422 22.7291H129.961L129.811 21.7133H129.759C129.277 22.3471 128.298 22.916 127.023 22.916C125.215 22.916 124.288 21.7661 124.288 20.5959C124.288 18.6415 126.21 17.5729 129.662 17.5932V17.4266C129.662 16.7602 129.459 15.5413 127.63 15.5575C126.781 15.5575 125.911 15.7729 125.283 16.1589L124.915 15.1756C125.656 14.7571 126.744 14.4727 127.869 14.4727C130.621 14.4727 131.284 16.1589 131.284 17.776V20.795H131.292ZM129.702 18.609C127.93 18.5765 125.915 18.8609 125.915 20.4293C125.915 21.3963 126.615 21.8311 127.428 21.8311C128.61 21.8311 129.366 21.1647 129.625 20.4781C129.682 20.3277 129.698 20.1611 129.698 20.0108V18.609H129.702Z" fill="white"/>
<path d="M141.614 10.8809V20.6448C141.614 21.3639 141.635 22.1806 141.687 22.7332H140.227L140.154 21.3314H140.117C139.62 22.2335 138.547 22.9161 137.087 22.9161C134.926 22.9161 133.243 21.2623 133.243 18.8082C133.222 16.1021 135.092 14.4687 137.253 14.4687C138.64 14.4687 139.563 15.0538 139.951 15.6876H139.988V10.8809H141.614ZM139.992 17.9427C139.992 17.7436 139.976 17.5079 139.919 17.3089C139.68 16.3906 138.794 15.6226 137.572 15.6226C135.893 15.6226 134.894 16.9594 134.894 18.7269C134.894 20.3806 135.8 21.7296 137.536 21.7296C138.624 21.7296 139.624 21.0633 139.919 19.9784C139.976 19.7793 139.992 19.5761 139.992 19.3445V17.9427Z" fill="white"/>
<path d="M151.868 22.9161C149.468 22.9161 147.583 21.3152 147.583 18.7595C147.583 16.0534 149.561 14.4688 152.017 14.4688C154.587 14.4688 156.323 16.155 156.323 18.6092C156.323 21.6119 154.012 22.9161 151.892 22.9161H151.868ZM151.924 21.815C153.474 21.815 154.639 20.4945 154.639 18.662C154.639 17.2927 153.883 15.5739 151.961 15.5739C150.059 15.5739 149.225 17.1748 149.225 18.7107C149.225 20.4782 150.334 21.815 151.904 21.815H151.924Z" fill="white"/>
<path d="M158.37 16.8415C158.37 15.9882 158.35 15.3218 158.297 14.6555H159.738L159.831 15.976H159.867C160.312 15.2243 161.344 14.4727 162.821 14.4727C164.059 14.4727 165.981 15.139 165.981 17.9101V22.7331H164.355V18.0767C164.355 16.7765 163.821 15.6753 162.287 15.6753C161.235 15.6753 160.401 16.358 160.106 17.1787C160.033 17.3616 159.997 17.6298 159.997 17.8614V22.7372H158.37V16.8415Z" fill="white"/>
<path d="M174.495 12.7168V14.6509H176.821V15.7683H174.495V20.124C174.495 21.1236 174.81 21.6924 175.713 21.6924C176.154 21.6924 176.413 21.6599 176.656 21.5908L176.728 22.7082C176.413 22.8098 175.915 22.9073 175.288 22.9073C174.531 22.9073 173.92 22.6716 173.532 22.2897C173.087 21.8387 172.905 21.1195 172.905 20.1687V15.7601H171.521V14.6428H172.905V13.1556L174.495 12.7168Z" fill="white"/>
<path d="M178.651 10.8809H180.277V15.9233H180.314C180.573 15.5048 180.977 15.1228 181.479 14.8872C181.96 14.619 182.531 14.4687 183.142 14.4687C184.34 14.4687 186.262 15.135 186.262 17.9224V22.7292H184.635V18.089C184.635 16.7684 184.101 15.6836 182.567 15.6836C181.515 15.6836 180.702 16.3499 180.386 17.1544C180.293 17.3535 180.273 17.5729 180.273 17.8574V22.7332H178.646V10.8809H178.651Z" fill="white"/>
<path d="M189.826 18.942C189.863 20.9289 191.251 21.7456 192.873 21.7456C194.039 21.7456 194.759 21.5628 195.35 21.3434L195.645 22.3795C195.071 22.6151 194.075 22.8955 192.651 22.8955C189.915 22.8955 188.252 21.2418 188.252 18.8242C188.252 16.37 189.859 14.4521 192.465 14.4521C195.382 14.4521 196.139 16.7722 196.139 18.2594C196.139 18.56 196.123 18.7917 196.086 18.9583L189.826 18.942ZM194.577 17.8896C194.593 16.9713 194.152 15.5005 192.339 15.5005C190.676 15.5005 189.976 16.8698 189.847 17.8896H194.577Z" fill="white"/>
</svg>
