<svg width="208" height="68" viewBox="0 0 208 68" fill="none" xmlns="http://www.w3.org/2000/svg">
<path d="M207.174 58.7946C207.174 63.8695 203.079 67.9815 198.025 67.9815H9.36045C4.30657 67.9815 0.21167 63.8654 0.21167 58.7946V9.1869C0.21167 4.11196 4.31062 0 9.36045 0H198.025C203.075 0 207.174 4.11196 207.174 9.1869V58.7946Z" fill="black"/>
<mask id="mask0_2920_159" style="mask-type:luminance" maskUnits="userSpaceOnUse" x="15" y="13" width="40" height="46">
<path d="M45.0653 29.9256L35.7345 24.5134C35.7345 24.5134 18.7317 14.6561 17.7323 14.0751C16.7328 13.494 15.7374 13.8475 15.7374 15.0584C15.7374 17.0737 15.7374 36.1058 15.7374 36.1058C15.7374 36.1058 15.7374 56.6737 15.7374 57.5798C15.7374 58.4859 16.4496 58.88 17.3155 58.3762C18.1855 57.8723 35.7304 47.6981 35.7304 47.6981L45.0613 42.29C45.0613 42.29 52.98 37.6985 54.032 37.0891C55.0841 36.4796 54.9829 35.6425 54.0968 35.159C53.2106 34.6796 45.0653 29.9256 45.0653 29.9256Z" fill="white"/>
</mask>
<g mask="url(#mask0_2920_159)">
<path d="M15.7374 13.0879V36.1059V59.124L38.8542 36.1059L15.7374 13.0879Z" fill="url(#paint0_linear_2920_159)"/>
</g>
<mask id="mask1_2920_159" style="mask-type:luminance" maskUnits="userSpaceOnUse" x="15" y="13" width="40" height="46">
<path d="M45.0653 29.9256L35.7345 24.5134C35.7345 24.5134 18.7317 14.6561 17.7323 14.0751C16.7328 13.494 15.7374 13.8475 15.7374 15.0584C15.7374 17.0737 15.7374 36.1058 15.7374 36.1058C15.7374 36.1058 15.7374 56.6737 15.7374 57.5798C15.7374 58.4859 16.4496 58.88 17.3155 58.3762C18.1855 57.8723 35.7304 47.6981 35.7304 47.6981L45.0613 42.29C45.0613 42.29 52.98 37.6985 54.032 37.0891C55.0841 36.4796 54.9829 35.6425 54.0968 35.159C53.2106 34.6796 45.0653 29.9256 45.0653 29.9256Z" fill="white"/>
</mask>
<g mask="url(#mask1_2920_159)">
<path d="M45.0653 29.9254L35.7304 24.5132L15.7374 12.9209V13.0875L38.8542 36.1055L45.0653 29.9254Z" fill="url(#paint1_linear_2920_159)"/>
</g>
<mask id="mask2_2920_159" style="mask-type:luminance" maskUnits="userSpaceOnUse" x="15" y="13" width="40" height="46">
<path d="M45.0653 29.9256L35.7345 24.5134C35.7345 24.5134 18.7317 14.6561 17.7323 14.0751C16.7328 13.494 15.7374 13.8475 15.7374 15.0584C15.7374 17.0737 15.7374 36.1058 15.7374 36.1058C15.7374 36.1058 15.7374 56.6737 15.7374 57.5798C15.7374 58.4859 16.4496 58.88 17.3155 58.3762C18.1855 57.8723 35.7304 47.6981 35.7304 47.6981L45.0613 42.29C45.0613 42.29 52.98 37.6985 54.032 37.0891C55.0841 36.4796 54.9829 35.6425 54.0968 35.159C53.2106 34.6796 45.0653 29.9256 45.0653 29.9256Z" fill="white"/>
</mask>
<g mask="url(#mask2_2920_159)">
<path d="M15.7374 59.1235V59.2942L35.7304 47.6978L45.0653 42.2897L38.8542 36.1055L15.7374 59.1235Z" fill="url(#paint2_linear_2920_159)"/>
</g>
<mask id="mask3_2920_159" style="mask-type:luminance" maskUnits="userSpaceOnUse" x="15" y="13" width="40" height="46">
<path d="M45.0653 29.9256L35.7345 24.5134C35.7345 24.5134 18.7317 14.6561 17.7323 14.0751C16.7328 13.494 15.7374 13.8475 15.7374 15.0584C15.7374 17.0737 15.7374 36.1058 15.7374 36.1058C15.7374 36.1058 15.7374 56.6737 15.7374 57.5798C15.7374 58.4859 16.4496 58.88 17.3155 58.3762C18.1855 57.8723 35.7304 47.6981 35.7304 47.6981L45.0613 42.29C45.0613 42.29 52.98 37.6985 54.032 37.0891C55.0841 36.4796 54.9829 35.6425 54.0968 35.159C53.2106 34.6796 45.0653 29.9256 45.0653 29.9256Z" fill="white"/>
</mask>
<g mask="url(#mask3_2920_159)">
<path d="M45.0653 29.9258L38.8541 36.1059L45.0653 42.2901L55.7274 36.1059L45.0653 29.9258Z" fill="url(#paint3_linear_2920_159)"/>
</g>
<path d="M123.872 32.7176C124.511 33.2499 125.851 34.3714 125.851 36.5005C125.851 38.5727 124.681 39.5519 123.508 40.4784C123.144 40.84 122.727 41.2341 122.727 41.8517C122.727 42.4653 123.144 42.8025 123.451 43.0544L124.455 43.8386C125.681 44.8747 126.797 45.8296 126.797 47.7596C126.797 50.3926 124.26 53.0499 119.465 53.0499C115.419 53.0499 113.469 51.1199 113.469 49.0436C113.469 48.0359 113.97 46.6097 115.617 45.6264C117.345 44.5619 119.688 44.4237 120.942 44.3384C120.55 43.8346 120.105 43.3023 120.105 42.4368C120.105 41.9614 120.246 41.6811 120.384 41.3438C120.076 41.3723 119.769 41.4007 119.49 41.4007C116.536 41.4007 114.861 39.1863 114.861 37.0043C114.861 35.7163 115.447 34.286 116.645 33.2499C118.235 31.9334 120.133 31.71 121.638 31.71H127.38L125.596 32.7176H123.872ZM121.893 45.151C121.671 45.1226 121.529 45.1226 121.254 45.1226C121.003 45.1226 119.494 45.1795 118.324 45.5736C117.709 45.7971 115.925 46.4675 115.925 48.4585C115.925 50.4454 117.851 51.8756 120.833 51.8756C123.508 51.8756 124.932 50.5835 124.932 48.8486C124.932 47.4183 124.014 46.6666 121.893 45.151ZM122.703 39.8323C123.342 39.1863 123.398 38.2924 123.398 37.7885C123.398 35.7732 122.201 32.6364 119.886 32.6364C119.162 32.6364 118.381 32.998 117.932 33.5628C117.458 34.1519 117.317 34.9077 117.317 35.635C117.317 37.5122 118.405 40.6206 120.805 40.6206C121.501 40.6165 122.253 40.2793 122.703 39.8323Z" fill="#F9F9F9"/>
<path d="M106.315 44.7038C101.888 44.7038 99.521 41.2379 99.521 38.1052C99.521 34.4443 102.499 31.3115 106.732 31.3115C110.822 31.3115 113.384 34.5255 113.384 37.9102C113.388 41.2095 110.855 44.7038 106.315 44.7038ZM109.795 42.4406C110.462 41.5467 110.632 40.4253 110.632 39.3364C110.632 36.874 109.463 32.177 106.011 32.177C105.093 32.177 104.174 32.5427 103.507 33.1278C102.422 34.107 102.224 35.3341 102.224 36.5409C102.224 39.3079 103.588 43.8628 106.958 43.8628C108.043 43.8628 109.155 43.3345 109.795 42.4406Z" fill="#F9F9F9"/>
<path d="M91.2261 44.7038C86.7994 44.7038 84.4323 41.2379 84.4323 38.1052C84.4323 34.4443 87.4104 31.3115 91.6428 31.3115C95.7337 31.3115 98.295 34.5255 98.295 37.9102C98.295 41.2095 95.762 44.7038 91.2261 44.7038ZM94.7059 42.4406C95.3736 41.5467 95.5435 40.4253 95.5435 39.3364C95.5435 36.874 94.3741 32.177 90.9226 32.177C90.0041 32.177 89.0855 32.5427 88.4179 33.1278C87.3335 34.107 87.1352 35.3341 87.1352 36.5409C87.1352 39.3079 88.4988 43.8628 91.8694 43.8628C92.9539 43.8628 94.0666 43.3345 94.7059 42.4406Z" fill="#F9F9F9"/>
<path d="M82.3039 44.2654L78.3021 45.1918C76.6795 45.4437 75.2228 45.6672 73.6852 45.6672C65.9567 45.6672 63.019 39.9625 63.019 35.493C63.019 30.0401 67.1908 24.9814 74.3286 24.9814C75.8419 24.9814 77.2945 25.2049 78.6096 25.5706C80.7097 26.1598 81.6889 26.8912 82.3039 27.3137L79.9813 29.5322L79.0021 29.7557L79.7021 28.6302C78.7512 27.7038 77.0153 25.9891 73.7135 25.9891C69.2909 25.9891 65.9607 29.3616 65.9607 34.2821C65.9607 39.5643 69.7683 44.5417 75.8702 44.5417C77.6628 44.5417 78.5853 44.176 79.427 43.8388V39.3205L75.2026 39.544L77.4402 38.3331H83.3762L82.6479 39.0361C82.4496 39.2067 82.4253 39.2636 82.3687 39.4871C82.3403 39.739 82.312 40.5557 82.312 40.8361V44.2654H82.3039Z" fill="#F9F9F9"/>
<path d="M132.721 43.4566C131.799 43.3713 131.604 43.2047 131.604 42.1076V41.7988V26.1961C131.608 26.1352 131.612 26.0742 131.621 26.0133C131.734 25.03 132.013 24.8634 132.883 24.3555H128.877L126.777 25.3672H128.918V41.7907V42.7212C128.918 43.2819 128.808 43.3672 128.161 44.2083H133.118L134.154 43.5907C133.672 43.5379 133.195 43.5135 132.721 43.4566Z" fill="#F9F9F9"/>
<path d="M144.112 43.7121C143.808 43.8787 143.501 44.0778 143.197 44.2159C142.279 44.6345 141.332 44.7482 140.498 44.7482C139.612 44.7482 138.22 44.6913 136.8 43.6593C134.829 42.2615 133.968 39.8602 133.968 37.7676C133.968 33.4403 137.472 31.3193 140.332 31.3193C141.332 31.3193 142.364 31.5713 143.197 32.0995C144.585 33.0178 144.949 34.2205 145.139 34.8624L138.609 37.5157L136.468 37.6823C137.16 41.2254 139.551 43.2895 142.194 43.2895C143.61 43.2895 144.642 42.7898 145.585 42.3144L144.112 43.7121ZM141.498 35.3947C142.024 35.1997 142.303 35.0331 142.303 34.643C142.303 33.5257 141.053 32.2417 139.551 32.2417C138.439 32.2417 136.355 33.1071 136.355 36.122C136.355 36.5974 136.412 37.0972 136.44 37.601L141.498 35.3947Z" fill="#F9F9F9"/>
<path d="M146.794 31.5103V33.3509H146.572V31.5103H145.965V31.3193H147.401V31.5103H146.794Z" fill="#F9F9F9"/>
<path d="M149.295 33.3509V31.49H149.283L148.717 33.3509H148.543L147.972 31.49H147.964V33.3509H147.762V31.3193H148.11L148.623 32.9609H148.632L149.137 31.3193H149.489V33.3509H149.295Z" fill="#F9F9F9"/>
<path d="M68.5786 19.5067H67.1867C67.1867 19.3157 67.0532 18.7712 66.7901 17.8733H64.7832C64.5121 18.755 64.3745 19.2995 64.3745 19.5067H63.0675C63.0675 19.3929 63.4074 18.4624 64.0831 16.7112C64.7589 14.964 65.0988 14.001 65.0988 13.8223H66.7416C66.7416 13.9889 67.0491 14.9356 67.6601 16.6706C68.2711 18.4056 68.5786 19.3523 68.5786 19.5067ZM66.5676 17.0444C66.0739 15.541 65.8231 14.7324 65.8231 14.6105H65.7543C65.7543 14.7243 65.4994 15.5369 64.9855 17.0444H66.5676Z" fill="#FCFCFD"/>
<path d="M74.1827 19.5067H73.1105C73.1105 19.3889 72.7139 18.7591 71.9168 17.6173C71.0832 16.4146 70.6058 15.5938 70.4925 15.1509H70.4237C70.4965 15.7889 70.5329 16.3658 70.5329 16.8778C70.5329 17.597 70.5532 18.4706 70.5936 19.5067H69.5254C69.5699 18.6047 69.5901 17.6132 69.5901 16.5324C69.5901 15.4719 69.5699 14.5658 69.5254 13.8223H70.8162C70.8162 13.9767 71.1723 14.5902 71.8885 15.667C72.6492 16.8087 73.0862 17.5848 73.1995 17.9952H73.2642C73.1954 17.3451 73.159 16.764 73.159 16.248C73.159 15.4597 73.1388 14.6512 73.0983 13.8223H74.1868C74.1463 14.5455 74.1261 15.4475 74.1261 16.5324C74.122 17.6295 74.1423 18.6209 74.1827 19.5067Z" fill="#FCFCFD"/>
<path d="M80.483 16.4713C80.483 17.2961 80.22 18.0194 79.6899 18.637C79.1639 19.2546 78.4234 19.5634 77.4725 19.5634C77.0436 19.5634 76.4528 19.5471 75.7002 19.5106C75.7366 18.6329 75.7568 17.6415 75.7568 16.5363C75.7568 15.4758 75.7366 14.5738 75.7002 13.8261H76.4609C76.5863 13.8261 76.7725 13.8221 77.0193 13.8139C77.2661 13.8058 77.428 13.8018 77.5008 13.8018C78.5448 13.8018 79.3055 14.0618 79.7749 14.586C80.2483 15.1101 80.483 15.7358 80.483 16.4713ZM79.2974 16.6582C79.2974 16.0975 79.1355 15.6302 78.8118 15.2442C78.4881 14.8623 77.9904 14.6713 77.3268 14.6713C77.2014 14.6713 77.0314 14.6835 76.8129 14.7119C76.8413 15.293 76.8575 15.9024 76.8575 16.5363C76.8575 17.2311 76.8736 17.9218 76.902 18.6045C77.0921 18.641 77.2783 18.6613 77.4685 18.6613C78.0916 18.6613 78.5529 18.4663 78.8523 18.0803C79.1436 17.6902 79.2974 17.2189 79.2974 16.6582Z" fill="#FCFCFD"/>
<path d="M86.2894 19.5065H85.0027C84.6669 18.4744 84.4079 17.8406 84.2299 17.6009C84.0518 17.3611 83.7605 17.2392 83.3599 17.2392C83.1899 17.2392 83.0321 17.2392 82.8784 17.2433C82.8784 17.9909 82.8905 18.7467 82.9188 19.5106H81.709C81.7454 18.6329 81.7656 17.6415 81.7656 16.5363C81.7656 15.4758 81.7454 14.5738 81.709 13.8261H82.4616C82.5466 13.8261 82.7287 13.8221 83.0079 13.8139C83.283 13.8058 83.542 13.8018 83.7767 13.8018C85.1079 13.8018 85.7715 14.2568 85.7715 15.1711C85.7715 15.8943 85.3912 16.4022 84.6345 16.6866V16.7516C84.9258 16.8329 85.1848 17.0604 85.4033 17.4383C85.6218 17.8121 85.9172 18.5029 86.2894 19.5065ZM84.6628 15.4921C84.6628 14.9151 84.2906 14.6225 83.5501 14.6225C83.279 14.6225 83.0362 14.6428 82.8298 14.6835C82.8622 15.1345 82.8784 15.7237 82.8784 16.4469C83.0362 16.451 83.1738 16.455 83.283 16.455C84.2015 16.4591 84.6628 16.134 84.6628 15.4921Z" fill="#FCFCFD"/>
<path d="M92.5209 16.5608C92.5209 17.4548 92.2498 18.1943 91.7035 18.7834C91.1573 19.3726 90.4856 19.6651 89.6803 19.6651C88.9156 19.6651 88.2763 19.397 87.7583 18.8566C87.2444 18.3162 86.9855 17.6295 86.9855 16.8006C86.9855 15.9067 87.2566 15.1672 87.8028 14.578C88.3491 13.9888 89.0208 13.6963 89.826 13.6963C90.5908 13.6963 91.2301 13.9645 91.748 14.5049C92.266 15.0412 92.5209 15.7279 92.5209 16.5608ZM91.3232 16.6909C91.3232 16.0814 91.1694 15.5897 90.8578 15.2119C90.5463 14.834 90.1659 14.643 89.7087 14.643C89.2838 14.643 88.9277 14.834 88.6323 15.2159C88.337 15.5979 88.1872 16.0773 88.1872 16.6624C88.1872 17.2678 88.341 17.7595 88.6526 18.1414C88.9641 18.5193 89.3445 18.7103 89.7977 18.7103C90.2226 18.7103 90.5786 18.5193 90.874 18.1374C91.1734 17.7473 91.3232 17.2678 91.3232 16.6909Z" fill="#FCFCFD"/>
<path d="M94.9809 19.5067H93.7509C93.7873 18.6047 93.8075 17.6132 93.8075 16.5324C93.8075 15.4719 93.7873 14.5658 93.7509 13.8223H94.9809C94.9445 14.5536 94.9243 15.4597 94.9243 16.5324C94.9243 17.6335 94.9405 18.625 94.9809 19.5067Z" fill="#FCFCFD"/>
<path d="M101.281 16.4713C101.281 17.2961 101.018 18.0194 100.488 18.637C99.9621 19.2546 99.2216 19.5634 98.2707 19.5634C97.8418 19.5634 97.251 19.5471 96.4984 19.5106C96.5348 18.6329 96.5551 17.6415 96.5551 16.5363C96.5551 15.4758 96.5348 14.5738 96.4984 13.8261H97.2591C97.3846 13.8261 97.5707 13.8221 97.8175 13.8139C98.0643 13.8058 98.2262 13.8018 98.299 13.8018C99.343 13.8018 100.104 14.0618 100.573 14.586C101.042 15.1101 101.281 15.7358 101.281 16.4713ZM100.092 16.6582C100.092 16.0975 99.9297 15.6302 99.606 15.2442C99.2823 14.8623 98.7846 14.6713 98.121 14.6713C97.9956 14.6713 97.8256 14.6835 97.6071 14.7119C97.6354 15.293 97.6516 15.9024 97.6516 16.5363C97.6516 17.2311 97.6678 17.9218 97.6961 18.6045C97.8863 18.641 98.0724 18.6613 98.2626 18.6613C98.8858 18.6613 99.347 18.4663 99.6465 18.0803C99.9418 17.6902 100.092 17.2189 100.092 16.6582Z" fill="#FCFCFD"/>
<path d="M109.637 19.5067H108.245C108.245 19.3157 108.112 18.7712 107.848 17.8733H105.842C105.57 18.755 105.433 19.2995 105.433 19.5067H104.126C104.126 19.3929 104.466 18.4624 105.141 16.7112C105.817 14.964 106.157 14.001 106.157 13.8223H107.8C107.8 13.9889 108.107 14.9356 108.718 16.6706C109.329 18.4056 109.637 19.3523 109.637 19.5067ZM107.63 17.0444C107.136 15.541 106.885 14.7324 106.885 14.6105H106.817C106.817 14.7243 106.562 15.5369 106.048 17.0444H107.63Z" fill="#FCFCFD"/>
<path d="M114.707 15.3134C114.707 16.0082 114.448 16.5243 113.934 16.8534C113.42 17.1866 112.789 17.3491 112.04 17.3491C111.903 17.3491 111.806 17.345 111.749 17.341C111.749 17.8895 111.765 18.6087 111.798 19.5067H110.576C110.612 18.6656 110.632 17.6741 110.632 16.5324C110.632 15.4841 110.612 14.5821 110.576 13.8222H111.332C111.437 13.8222 111.644 13.8182 111.951 13.81C112.255 13.8019 112.518 13.7979 112.744 13.7979C113.295 13.7979 113.76 13.9238 114.14 14.1717C114.517 14.4236 114.707 14.8055 114.707 15.3134ZM113.586 15.5532C113.586 14.9315 113.173 14.6186 112.352 14.6186C112.146 14.6186 111.927 14.6389 111.7 14.6836C111.733 15.2322 111.749 15.8579 111.749 16.5527C111.822 16.5568 111.907 16.5608 112 16.5608C113.056 16.5608 113.586 16.2276 113.586 15.5532Z" fill="#FCFCFD"/>
<path d="M119.923 15.3134C119.923 16.0082 119.664 16.5243 119.15 16.8534C118.636 17.1866 118.005 17.3491 117.256 17.3491C117.119 17.3491 117.021 17.345 116.965 17.341C116.965 17.8895 116.981 18.6087 117.013 19.5067H115.791C115.828 18.6656 115.848 17.6741 115.848 16.5324C115.848 15.4841 115.828 14.5821 115.791 13.8222H116.548C116.653 13.8222 116.86 13.8182 117.167 13.81C117.471 13.8019 117.734 13.7979 117.96 13.7979C118.511 13.7979 118.976 13.9238 119.356 14.1717C119.733 14.4236 119.923 14.8055 119.923 15.3134ZM118.802 15.5532C118.802 14.9315 118.389 14.6186 117.568 14.6186C117.361 14.6186 117.143 14.6389 116.916 14.6836C116.949 15.2322 116.965 15.8579 116.965 16.5527C117.038 16.5568 117.123 16.5608 117.216 16.5608C118.272 16.5608 118.802 16.2276 118.802 15.5532Z" fill="#FCFCFD"/>
<path d="M128.444 16.5608C128.444 17.4548 128.173 18.1943 127.627 18.7834C127.081 19.3726 126.409 19.6651 125.604 19.6651C124.839 19.6651 124.2 19.397 123.682 18.8566C123.168 18.3162 122.909 17.6295 122.909 16.8006C122.909 15.9067 123.18 15.1672 123.726 14.578C124.273 13.9888 124.944 13.6963 125.749 13.6963C126.514 13.6963 127.154 13.9645 127.671 14.5049C128.185 15.0412 128.444 15.7279 128.444 16.5608ZM127.247 16.6909C127.247 16.0814 127.093 15.5897 126.781 15.2119C126.47 14.834 126.089 14.643 125.632 14.643C125.207 14.643 124.851 14.834 124.556 15.2159C124.26 15.5979 124.111 16.0773 124.111 16.6624C124.111 17.2678 124.264 17.7595 124.58 18.1414C124.892 18.5193 125.272 18.7103 125.725 18.7103C126.15 18.7103 126.506 18.5193 126.802 18.1374C127.097 17.7473 127.247 17.2678 127.247 16.6909Z" fill="#FCFCFD"/>
<path d="M134.336 19.5067H133.263C133.263 19.3889 132.867 18.7591 132.07 17.6173C131.236 16.4146 130.759 15.5938 130.645 15.1509H130.577C130.649 15.7889 130.686 16.3658 130.686 16.8778C130.686 17.597 130.706 18.4706 130.747 19.5067H129.678C129.723 18.6047 129.743 17.6132 129.743 16.5324C129.743 15.4719 129.723 14.5658 129.678 13.8223H130.969C130.969 13.9767 131.325 14.5902 132.041 15.667C132.802 16.8087 133.239 17.5848 133.352 17.9952H133.417C133.348 17.3451 133.312 16.764 133.312 16.248C133.312 15.4597 133.292 14.6512 133.251 13.8223H134.34C134.299 14.5455 134.279 15.4475 134.279 16.5324C134.275 17.6295 134.295 18.6209 134.336 19.5067Z" fill="#FCFCFD"/>
<defs>
<linearGradient id="paint0_linear_2920_159" x1="27.2954" y1="13.0883" x2="27.2954" y2="59.1255" gradientUnits="userSpaceOnUse">
<stop stop-color="#2079B0"/>
<stop offset="0.2863" stop-color="#4A93B8"/>
<stop offset="0.767" stop-color="#83BEBF"/>
<stop offset="1" stop-color="#97CFBF"/>
</linearGradient>
<linearGradient id="paint1_linear_2920_159" x1="15.7363" y1="24.5137" x2="45.064" y2="24.5137" gradientUnits="userSpaceOnUse">
<stop stop-color="#5ABCAB"/>
<stop offset="1" stop-color="#E6E99A"/>
</linearGradient>
<linearGradient id="paint2_linear_2920_159" x1="30.4" y1="36.1068" x2="30.4" y2="59.2925" gradientUnits="userSpaceOnUse">
<stop stop-color="#E53432"/>
<stop offset="0.1668" stop-color="#D73948"/>
<stop offset="0.5748" stop-color="#B33F72"/>
<stop offset="0.8619" stop-color="#9A4189"/>
<stop offset="1" stop-color="#904192"/>
</linearGradient>
<linearGradient id="paint3_linear_2920_159" x1="47.2915" y1="29.9244" x2="47.2915" y2="42.2893" gradientUnits="userSpaceOnUse">
<stop stop-color="#F18779"/>
<stop offset="0.1194" stop-color="#F2917A"/>
<stop offset="0.7128" stop-color="#FABC77"/>
<stop offset="1" stop-color="#FDCB72"/>
</linearGradient>
</defs>
</svg>
