<svg width="28" height="28" viewBox="0 0 28 28" fill="none" xmlns="http://www.w3.org/2000/svg">
<circle cx="14" cy="14" r="14" fill="#3C599B"/>
<circle cx="14.11" cy="12.11" r="12.11" fill="white"/>
<path d="M25.3216 12.1094C25.3216 5.41992 19.9242 0 13.2625 0C6.6008 0 1.20337 5.41992 1.20337 12.1094C1.20337 18.1533 5.61322 23.1631 11.3783 24.0723V15.6099H8.31485V12.1094H11.3783V9.44141C11.3783 6.40674 13.1774 4.73047 15.933 4.73047C17.2527 4.73047 18.6327 4.9668 18.6327 4.9668V7.94531H17.1117C15.614 7.94531 15.1467 8.87891 15.1467 9.83643V12.1094H18.4912L17.9563 15.6099H15.1467V24.0723C20.9118 23.1631 25.3216 18.1533 25.3216 12.1094Z" fill="#3C599B"/>
</svg>
