<svg width="28" height="28" viewBox="0 0 28 28" fill="none" xmlns="http://www.w3.org/2000/svg">
<circle cx="14" cy="14" r="14" fill="#107AB6"/>
<path d="M10.8842 20H7.99372V10.6529H10.8842V20ZM9.43739 9.37789C8.51312 9.37789 7.76343 8.60912 7.76343 7.68097C7.76343 7.23515 7.93979 6.80759 8.25372 6.49235C8.56765 6.1771 8.99343 6 9.43739 6C9.88135 6 10.3071 6.1771 10.6211 6.49235C10.935 6.80759 11.1114 7.23515 11.1114 7.68097C11.1114 8.60912 10.3614 9.37789 9.43739 9.37789ZM21.7022 20H18.818V15.4499C18.818 14.3655 18.7962 12.9748 17.3152 12.9748C15.8124 12.9748 15.5821 14.153 15.5821 15.3718V20H12.6948V10.6529H15.467V11.9279H15.5074C15.8933 11.1936 16.8359 10.4185 18.2423 10.4185C21.1676 10.4185 21.7053 12.353 21.7053 14.8655V20H21.7022Z" fill="white"/>
</svg>
