<svg width="29" height="28" viewBox="0 0 29 28" fill="none" xmlns="http://www.w3.org/2000/svg">
<circle cx="15" cy="14" r="14" fill="white"/>
<path d="M28.4731 14C28.4731 21.7339 22.2329 28 14.5311 28C13.092 28 11.709 27.7798 10.4048 27.3734C10.9726 26.4419 11.8215 24.9177 12.1363 23.704C12.3049 23.0492 13.002 20.3734 13.002 20.3734C13.4574 21.2427 14.7841 21.9823 16.1952 21.9823C20.4002 21.9823 23.4304 18.0984 23.4304 13.2718C23.4304 8.64839 19.6694 5.1879 14.8347 5.1879C8.81946 5.1879 5.62069 9.24113 5.62069 13.6613C5.62069 15.7161 6.71131 18.2734 8.44842 19.0863C8.71264 19.2105 8.85319 19.154 8.91503 18.9C8.96 18.7081 9.19611 17.754 9.30293 17.3137C9.33666 17.1726 9.31979 17.0484 9.20736 16.9129C8.63956 16.2073 8.17858 14.9202 8.17858 13.7177C8.17858 10.6298 10.506 7.64355 14.4749 7.64355C17.8986 7.64355 20.299 9.98629 20.299 13.3395C20.299 17.1274 18.3933 19.7524 15.9141 19.7524C14.548 19.7524 13.5192 18.6177 13.8509 17.2234C14.2444 15.5581 15.0034 13.7629 15.0034 12.5605C15.0034 11.4879 14.43 10.5903 13.2381 10.5903C11.8383 10.5903 10.714 12.0411 10.714 13.9887C10.714 15.2306 11.13 16.0661 11.13 16.0661C11.13 16.0661 9.75267 21.9258 9.49969 23.021C9.2186 24.229 9.33104 25.9339 9.44909 27.0403C4.26585 25.0024 0.589233 19.9331 0.589233 14C0.589233 6.26613 6.82936 0 14.5311 0C22.2329 0 28.4731 6.26613 28.4731 14Z" fill="#E80909"/>
</svg>
