<svg width="28" height="28" viewBox="0 0 28 28" fill="none" xmlns="http://www.w3.org/2000/svg">
<circle cx="14" cy="14" r="14" fill="#5EAADE"/>
<path d="M21.1685 10.489C21.1793 10.6422 21.1793 10.7953 21.1793 10.9484C21.1793 15.6187 17.6881 21 11.3073 21C9.34151 21 7.51537 20.4203 5.97925 19.4141C6.25855 19.4469 6.52708 19.4578 6.81713 19.4578C8.43915 19.4578 9.93233 18.9 11.1247 17.9485C9.59932 17.9156 8.32101 16.8984 7.88058 15.4984C8.09544 15.5312 8.31027 15.5531 8.53587 15.5531C8.84738 15.5531 9.15892 15.5093 9.44894 15.4328C7.85912 15.1047 6.66671 13.6828 6.66671 11.9656V11.9219C7.1286 12.1844 7.66575 12.3484 8.23504 12.3703C7.30048 11.7359 6.68821 10.6531 6.68821 9.4281C6.68821 8.77186 6.86005 8.1703 7.16084 7.6453C8.86884 9.78904 11.4362 11.189 14.3151 11.3422C14.2614 11.0797 14.2291 10.8063 14.2291 10.5328C14.2291 8.58592 15.776 7 17.6988 7C18.6978 7 19.6001 7.42656 20.2339 8.11562C21.0181 7.96251 21.77 7.66718 22.4361 7.2625C22.1782 8.08283 21.6304 8.7719 20.9107 9.20937C21.6089 9.13284 22.2857 8.93592 22.9087 8.66251C22.4361 9.36248 21.8453 9.9859 21.1685 10.489Z" fill="white"/>
</svg>
