<svg width="255" height="73" viewBox="0 0 255 73" fill="none" xmlns="http://www.w3.org/2000/svg">
<path d="M206.815 63.5702C192.973 69.2902 178.045 78.5402 162.768 65.7002C156.863 67.6002 151.127 70.1902 145.122 71.1402C139.515 72.0302 136.797 68.9702 137.145 63.1102C137.444 58.1802 139.017 53.3302 139.416 48.3902C139.665 45.3302 139.744 40.2302 138.181 39.4302C134.237 37.4102 132.266 41.8702 130.453 44.6202C125.295 52.4602 122.496 61.0002 124.458 70.5302C113.872 72.2902 108.525 67.4202 109.739 57.1202C110.237 52.8502 111.562 48.6602 111.89 44.3802C112.03 42.6502 110.526 40.7902 109.769 38.9802C107.957 39.8602 105.487 40.2502 104.442 41.6902C98.1677 50.3002 96.405 60.0902 98.078 70.5302C90.878 71.7302 87.1834 69.9502 83.6282 63.3802C81.4872 64.8602 79.4855 66.5402 77.2349 67.7402C74.7851 69.0602 72.1959 70.4102 69.5071 70.9302C60.0963 72.7602 56.1029 69.1802 57.4274 59.7102C58.254 53.8202 60.2855 48.1102 61.4606 42.2502C61.7992 40.5702 61.0424 38.6702 60.7934 36.8702C58.9809 38.0002 56.5909 38.7102 55.4556 40.3202C50.6855 47.0802 46.6025 54.3402 41.6332 60.9302C38.9942 64.4302 35.3494 67.3702 31.6548 69.8002C25.9386 73.5502 21.537 72.3302 18.8183 65.9902C16.478 60.5402 15.2233 54.6102 13.4905 48.8902C12.8133 46.6602 12.2855 44.3802 11.4789 42.2002C9.22824 36.1402 8.29214 35.8002 2.4465 38.7802C1.73945 37.8102 1.01248 36.7602 0.116211 35.4802C4.05978 32.1102 7.68468 28.6802 11.6581 25.7102C17.9818 20.9802 22.9909 23.0602 24.5843 30.9002C25.7096 36.4402 26.5162 42.0402 27.7511 47.5502C28.2689 49.8602 29.5336 52.0002 30.7785 55.0002C36.3154 50.4302 39.6515 45.5302 40.5677 39.5102C41.3544 34.4002 37.1021 34.9102 33.7859 35.0702C34.5428 27.9302 39.5619 23.1702 46.8415 22.4702C52.4083 21.9302 55.0772 24.0502 57.298 30.9902C59.937 28.9202 62.2573 26.4202 65.1154 25.0602C67.4158 23.9702 70.9312 23.1802 72.8631 24.2202C74.7453 25.2402 76.3386 28.7902 76.239 31.1402C76 36.7402 74.6755 42.2902 73.7992 47.8502C73.6199 49.0002 73.0623 50.2402 73.3212 51.2802C73.8988 53.6002 74.8847 55.8302 75.7013 58.0902C78.2905 56.6602 82.4531 55.7702 83.1502 53.7102C84.893 48.5102 85.0523 42.7802 86.0282 36.1002C83.1901 37.3902 81.6365 38.0902 79.844 38.9002C79.0672 37.9502 78.2506 36.9502 77.3843 35.8902C77.7428 35.3802 77.9619 34.9502 78.2905 34.6502C81.3378 31.8202 84.1859 28.7102 87.5419 26.3302C89.6133 24.8602 93.0988 23.2002 94.8316 24.0102C96.9826 25.0202 98.0482 28.4602 99.4324 30.9502C99.8606 31.7302 99.771 32.7902 99.7311 32.5002C105.099 29.9602 110.367 26.2202 116.153 25.0102C124.528 23.2702 127.047 25.9402 128.471 35.1002C130.354 33.3302 131.768 31.3902 133.68 30.3502C137.653 28.2002 141.736 25.4902 146.038 24.8902C153.776 23.8002 157.729 28.5502 156.594 36.4702C155.867 41.5602 154.672 46.5902 153.686 51.6502C153.497 52.6202 152.91 53.8402 153.278 54.5302C154.015 55.9002 155.29 56.9902 156.345 58.1902C157.54 57.0302 159.811 55.8302 159.761 54.7202C159.193 40.0102 175.864 21.9902 194.705 23.7802C198.858 24.1702 202.722 25.1402 204.704 29.1602C206.845 33.5102 206.367 37.9002 203.608 41.9202C198.559 49.2602 191.339 53.4102 183.004 55.8602C181.769 56.2202 180.515 56.5302 177.915 57.2302C180.465 58.4802 182.038 59.9802 183.363 59.7802C190.344 58.7202 197.285 57.3802 204.136 55.7002C205.062 55.4702 205.809 52.8102 205.919 51.2302C206.984 34.9702 223.037 21.2602 239.17 22.9702C246.808 23.7802 251.867 27.6602 253.759 35.1902C256.438 45.8402 253.65 55.3302 246.181 63.2702C239.001 70.9002 229.978 73.8702 219.95 71.1302C215.429 69.9102 211.575 66.4102 206.815 63.5702ZM241.192 41.7402C239.847 39.0902 238.822 34.5302 237.069 34.2302C234.271 33.7502 230.347 35.3702 228.056 37.4002C223.446 41.5002 221.344 47.3202 221.693 53.4902C221.832 55.9802 223.396 60.0202 225.039 60.4302C227.529 61.0602 231.313 59.9102 233.384 58.1402C238.075 54.1302 240.037 48.4402 241.192 41.7402ZM176.133 51.9802C182.556 49.4002 187.296 46.1802 190.045 40.7702C190.722 39.4302 190.065 37.4102 190.025 35.7102C188.322 35.7602 186.181 35.1502 184.986 35.9602C179.658 39.5302 176.481 44.5202 176.133 51.9802Z" fill="white"/>
<path d="M69.6565 15.7701C65.2648 15.8301 62.6257 13.6701 62.556 9.95013C62.4664 5.11013 68.5311 -0.0298693 74.2971 0.000130695C78.2805 0.0201307 80.5212 2.34013 80.9394 6.00013C81.4573 10.5501 75.2531 15.6901 69.6565 15.7701Z" fill="white"/>
</svg>
