<svg width="98" height="97" viewBox="0 0 98 97" fill="none" xmlns="http://www.w3.org/2000/svg">
<path d="M44.9479 96.8942C46.1729 93.5031 47.3663 90.1926 48.5641 86.8821C50.9424 80.3058 53.3279 73.7322 55.6891 67.1515C55.8723 66.6393 56.1141 66.4681 56.6579 66.471C60.2111 66.4969 63.7643 66.4839 67.3189 66.4854C70.4271 66.4868 72.442 65.0567 73.4995 62.1333C76.5533 53.688 79.6399 45.2542 82.6494 36.793C83.04 35.6939 83.3076 34.4393 83.2046 33.2941C82.9527 30.5001 80.8048 28.6628 77.7796 28.6254C72.2001 28.5549 66.6192 28.6096 61.0382 28.5923C60.5474 28.5909 60.4587 28.8772 60.3313 29.2282C57.1645 37.9886 53.9919 46.7476 50.8222 55.5065C46.1285 68.4795 41.4377 81.4539 36.7439 94.4268C36.6323 94.7376 36.5021 95.0411 36.3833 95.3404C17.9877 90.7825 -0.0731333 72.3137 0.811232 46.9605C1.73137 20.547 21.8743 4.42756 38.4612 1.27101C30.5949 22.9928 22.7472 44.6629 14.8609 66.4422C15.1829 66.4581 15.4304 66.4811 15.6766 66.4825C18.1809 66.4854 20.6851 66.4638 23.1894 66.4998C23.7661 66.5084 24.0151 66.3257 24.2111 65.7833C27.9132 55.5094 31.6409 45.2455 35.343 34.9716C35.5247 34.4695 35.7251 34.2595 36.2874 34.271C38.3109 34.3098 40.3358 34.2868 42.5138 34.2868C38.6243 45.024 34.7663 55.6748 30.8696 66.4322C31.163 66.4537 31.3848 66.4839 31.608 66.4839C34.1595 66.4868 36.7125 66.471 39.2639 66.4998C39.7906 66.5055 39.9995 66.3156 40.1712 65.8394C43.7144 56.0173 47.2848 46.2052 50.8194 36.3816C51.6279 34.1357 51.5334 31.9776 49.7289 30.1836C48.5612 29.0225 47.0715 28.6225 45.4745 28.6082C43.162 28.5866 40.8481 28.6024 38.5341 28.601C38.2765 28.601 38.019 28.601 37.6841 28.601C37.8072 28.224 37.893 27.9305 37.9975 27.6442C41.2502 18.6594 44.51 9.67746 47.7513 0.689761C47.9201 0.220738 48.1176 -0.0396707 48.6485 0.00492966C51.5177 0.243757 54.4227 0.262461 57.2532 0.7358C67.163 2.39177 75.7247 6.83454 82.8855 13.9087C90.2108 21.1455 94.8258 29.8757 96.6032 40.0589C98.3962 50.3329 97.084 60.2269 92.5777 69.6276C88.3104 78.5289 81.8809 85.4808 73.4007 90.4962C67.3905 94.0499 60.9037 96.1964 53.9705 96.8352C51.2501 97.0856 48.4954 96.9618 45.7564 96.9992C45.5218 97.0007 45.2885 96.9388 44.9479 96.8942Z" fill="white"/>
<path d="M58.0475 60.7341C58.3036 60.0047 58.5312 59.3314 58.7744 58.6638C61.6379 50.7609 64.5099 42.8609 67.3562 34.9522C67.5523 34.4084 67.8027 34.2257 68.3765 34.2357C70.3757 34.2731 72.3748 34.2501 74.4726 34.2501C74.3997 34.5292 74.3639 34.7278 74.2952 34.9163C71.2443 43.3371 68.1862 51.7536 65.1467 60.1788C64.9822 60.6334 64.7747 60.8061 64.2795 60.7974C62.4207 60.7658 60.5589 60.7859 58.7 60.783C58.5169 60.7816 58.3337 60.7557 58.0475 60.7341Z" fill="white"/>
</svg>
