<svg width="245" height="74" viewBox="0 0 245 74" fill="none" xmlns="http://www.w3.org/2000/svg">
<path d="M52.0281 7.65661C53.7566 3.11366 56.8928 0.526518 61.8373 0.442827C66.8687 0.357317 69.8654 3.15004 71.7533 7.63296C71.9635 7.17994 72.1175 6.83608 72.2806 6.49768C74.3478 2.21489 78.5331 0.200852 82.9014 0.481034C86.1609 0.690261 88.8949 1.98201 90.8988 4.6401C92.0275 6.13562 92.5439 7.87675 92.6997 9.70885C92.8356 11.2953 92.8719 12.8946 92.8719 14.4883C92.8737 23.2686 92.8501 32.0488 92.8356 40.8291C92.8356 41.0147 92.8392 41.2002 92.8338 41.3858C92.8121 42.2628 92.2939 42.8486 91.4315 42.8559C88.9185 42.8795 86.4037 42.8795 83.8907 42.8595C83.0264 42.8522 82.4992 42.2409 82.4974 41.324C82.492 38.5203 82.4938 35.7185 82.4956 32.9149C82.4992 27.7351 82.5137 22.5572 82.5065 17.3775C82.5046 16.3204 82.4811 15.2597 82.3778 14.2081C82.0535 10.9242 79.0984 9.23764 76.0419 10.584C74.0471 11.4627 73.1031 13.1202 72.8766 15.207C72.7263 16.5879 72.6411 17.9815 72.6375 19.3697C72.6139 26.5726 72.6266 33.7736 72.6266 40.9765C72.6266 42.3992 72.1555 42.8704 70.7315 42.8722C68.4757 42.8741 66.2218 42.8759 63.9661 42.8722C62.7866 42.8704 62.2594 42.3574 62.2594 41.1839C62.263 33.6481 62.2993 26.1104 62.2648 18.5746C62.2576 16.9336 62.1815 15.2579 61.8481 13.6587C61.2267 10.684 58.7028 9.39047 55.8329 10.3893C54.5338 10.8405 53.6352 11.7593 53.2547 13.0347C52.8706 14.3191 52.5608 15.6636 52.4865 16.9954C52.3488 19.5316 52.385 22.0787 52.3796 24.6222C52.3687 30.0803 52.3759 35.5366 52.3759 40.9947C52.3759 42.4356 51.9321 42.8741 50.479 42.8759C48.2414 42.8777 46.0056 42.8777 43.768 42.8759C42.5197 42.8741 42.0269 42.3756 42.0269 41.1202C42.0269 28.4429 42.0269 15.7637 42.0269 3.08636C42.0269 1.76005 42.5016 1.28519 43.8332 1.28337C45.9585 1.28155 48.0856 1.28155 50.2108 1.28337C51.3867 1.28519 51.8958 1.80007 51.8976 2.98084C51.8994 4.51639 51.8976 6.05193 51.8976 7.58747C51.9393 7.60749 51.9846 7.63114 52.0281 7.65661Z" fill="white"/>
<path d="M121.752 16.5531C121.674 15.003 121.714 13.4911 121.498 12.0156C121.165 9.73231 119.688 8.4624 117.199 8.16584C114.682 7.86564 111.606 8.92815 110.64 12.0193C110.546 12.3195 110.486 12.6306 110.385 12.9271C110.104 13.764 109.622 14.0915 108.758 14.0042C106.535 13.7786 104.31 13.5457 102.088 13.2983C100.978 13.1746 100.532 12.5014 100.762 11.3934C101.764 6.58845 104.592 3.29358 109.12 1.5761C114.329 -0.397913 119.634 -0.545281 124.897 1.38143C129.543 3.08253 131.965 6.52477 132.186 11.4589C132.315 14.3299 132.281 17.2099 132.297 20.0863C132.313 22.9264 132.324 25.7664 132.293 28.6064C132.27 30.7678 132.886 32.6945 134.176 34.4175C134.52 34.8778 134.868 35.3344 135.181 35.8166C135.741 36.6771 135.642 37.2957 134.877 37.9598C133.129 39.4771 131.384 40.9963 129.635 42.5136C128.642 43.3742 128.012 43.3615 127.014 42.5118C125.85 41.5203 124.849 40.3868 124.006 39.1096C123.752 38.7239 123.491 38.3455 123.202 37.9161C122.79 38.3091 122.412 38.6784 122.026 39.0405C120.027 40.9181 117.826 42.4481 115.085 42.9976C112.468 43.5234 109.838 43.6598 107.23 42.9576C103.746 42.0206 101.333 39.841 100.197 36.3988C99.0483 32.9165 99.1044 29.4033 100.529 26.0029C102.17 22.0858 105.295 19.8316 109.213 18.5581C111.934 17.6738 114.757 17.3209 117.585 17.0061C118.924 16.8533 120.265 16.7132 121.752 16.5531ZM121.687 22.6935C119.746 22.5388 116.742 22.9482 115.05 23.585C112.927 24.3837 111.356 25.7355 110.738 28.0097C110.392 29.2832 110.354 30.5768 110.602 31.8685C111.068 34.2901 112.644 35.7001 114.96 35.762C116.375 35.8002 117.594 35.2744 118.65 34.352C119.781 33.3641 120.513 32.1105 121.009 30.7096C121.933 28.1061 121.618 25.4025 121.687 22.6935Z" fill="white"/>
<path d="M22.7762 16.5498C22.6802 14.9596 22.6875 13.4332 22.4755 11.9358C22.1512 9.65981 20.4517 8.28074 17.8988 8.13155C15.1902 7.97326 12.2152 9.20133 11.4415 12.6763C11.1987 13.7698 10.7095 14.1009 9.62608 13.9935C7.43922 13.7752 5.25417 13.5423 3.06912 13.2985C2.00739 13.1803 1.53632 12.5162 1.74106 11.4919C2.66146 6.91621 5.23786 3.6177 9.51737 1.83836C15.1249 -0.494065 20.8467 -0.659627 26.5104 1.64369C30.6522 3.32842 32.8173 6.56325 33.1453 11.0207C33.2485 12.4253 33.2703 13.8371 33.2757 15.2471C33.2902 19.6263 33.3011 24.0073 33.2667 28.3865C33.2485 30.7026 33.8736 32.7712 35.2941 34.5997C35.6238 35.0236 35.9445 35.4566 36.2308 35.9114C36.72 36.6938 36.6113 37.3178 35.9192 37.9218C34.1472 39.4665 32.3734 41.0111 30.5997 42.5521C29.6738 43.3563 28.9745 43.3472 28.0541 42.5558C26.88 41.5478 25.8563 40.4126 25.0084 39.1135C24.7547 38.726 24.4884 38.3494 24.0155 37.7781C23.8851 38.0037 23.7963 38.2693 23.6187 38.4458C21.7779 40.2743 19.794 41.9099 17.2611 42.6704C14.268 43.5673 11.2169 43.7438 8.18206 42.9378C4.72331 42.019 2.33896 39.8304 1.1957 36.4081C0.0705623 33.0405 0.101363 29.6437 1.39138 26.3288C2.98215 22.2425 6.14739 19.881 10.1859 18.562C12.9055 17.6741 15.7283 17.323 18.5565 17.0046C19.9118 16.8518 21.2688 16.7117 22.7762 16.5498ZM22.6965 22.6665C20.6818 22.6392 18.7721 22.7702 16.915 23.3178C16.2301 23.5197 15.5453 23.7745 14.9148 24.111C11.6245 25.8667 10.3744 30.4915 12.2931 33.7136C12.958 34.8307 13.94 35.5039 15.2192 35.7022C16.7193 35.9333 18.0818 35.5639 19.2867 34.6452C20.7724 33.5117 21.6511 31.9634 22.1638 30.1986C22.8759 27.7534 22.6458 25.2409 22.6965 22.6665Z" fill="white"/>
<path d="M223.344 8.2389C223.754 7.41291 224.131 6.57054 224.576 5.76456C225.848 3.46488 227.573 1.64552 230.179 0.932326C233.344 0.0681276 236.451 0.211857 239.337 1.92752C241.955 3.4849 243.318 5.91739 243.894 8.85566C244.338 11.1244 244.443 13.4204 244.447 15.7238C244.456 24.2439 244.452 32.7639 244.452 41.284C244.452 42.3065 243.916 42.8596 242.872 42.8651C240.47 42.8778 238.065 42.876 235.663 42.8669C234.601 42.8632 234.088 42.3229 234.088 41.2349C234.09 33.8465 234.121 26.4598 234.083 19.0714C234.074 17.3175 233.84 15.5637 233.695 13.8116C233.674 13.5587 233.565 13.3113 233.491 13.0639C232.418 9.4979 228.457 9.35963 226.464 11.1353C225.334 12.1433 224.768 13.4496 224.379 14.8596C223.93 16.4806 223.805 18.1435 223.805 19.8192C223.805 26.8546 223.803 33.8883 223.801 40.9238C223.801 42.3847 223.328 42.8669 221.888 42.8687C219.65 42.8705 217.414 42.8705 215.177 42.8687C213.943 42.8669 213.428 42.3502 213.427 41.1057C213.421 28.3902 213.417 15.6765 213.416 2.96092C213.416 1.8129 213.93 1.28164 215.066 1.27982C217.266 1.27437 219.465 1.27437 221.665 1.27982C222.717 1.28346 223.236 1.80744 223.237 2.84812C223.239 4.46371 223.237 6.07749 223.237 7.69309C223.237 7.8732 223.237 8.05332 223.237 8.23344C223.274 8.23344 223.31 8.23708 223.344 8.2389Z" fill="white"/>
<path d="M173.539 21.9441C173.55 17.4939 174.26 13.1911 176.342 9.20487C178.493 5.08764 181.667 2.12753 186.233 0.99589C193.641 -0.83803 201.488 1.71818 205.391 10.3165C207.331 14.5938 207.931 19.1222 207.737 23.7762C207.545 28.4028 206.382 32.7402 203.753 36.6081C198.598 44.1949 189.657 45.1301 183.455 42.0954C180.227 40.5161 177.951 37.9654 176.326 34.7997C174.409 31.0664 173.644 27.0528 173.537 22.8883C173.532 22.5754 173.539 22.2606 173.539 21.9441ZM196.703 22.257C196.607 20.4795 196.557 18.6965 196.404 16.9226C196.241 15.0177 195.951 13.1256 195.205 11.3463C194.647 10.0181 193.739 9.0484 192.319 8.62813C189.679 7.84762 187.38 8.83008 186.135 11.288C185.405 12.7308 185.061 14.2918 184.907 15.8819C184.515 19.9009 184.532 23.9254 185.008 27.9371C185.233 29.8237 185.664 31.654 186.626 33.3297C188.518 36.6263 192.859 36.2152 194.524 33.5698C195.096 32.6601 195.547 31.6304 195.845 30.5951C196.624 27.877 196.64 25.0643 196.703 22.257Z" fill="white"/>
<path d="M99.186 73.9181C88.6866 73.8853 78.4425 72.2533 68.4902 68.8821C57.873 65.2852 48.187 59.9581 39.4613 52.8917C38.1387 51.8201 36.8595 50.6939 35.5732 49.5786C34.7597 48.8727 34.5604 48.1704 34.9734 47.621C35.3865 47.0697 36.0533 47.0406 36.9755 47.5755C42.4381 50.7394 48.1127 53.4557 53.9921 55.7408C61.6379 58.7118 69.4958 60.9333 77.562 62.3997C87.2697 64.1663 97.0517 64.8904 106.913 64.3646C121.672 63.5768 135.872 60.3238 149.507 54.5964C150.138 54.3308 150.774 54.1689 151.446 54.349C152.848 54.7256 153.336 56.2593 152.33 57.3127C151.763 57.9077 151.055 58.377 150.373 58.8501C144.132 63.1875 137.325 66.3677 130.148 68.7856C123.776 70.9325 117.244 72.3916 110.577 73.2176C106.796 73.6852 102.998 73.929 99.186 73.9181Z" fill="white"/>
<path d="M155.872 9.53602C154.446 9.53602 153.135 9.53602 151.825 9.53602C148.94 9.53602 146.058 9.53784 143.173 9.53602C141.981 9.5342 141.492 9.04479 141.49 7.84583C141.486 6.15746 141.485 4.46727 141.492 2.7789C141.497 1.66726 141.985 1.17422 143.077 1.17422C151.229 1.1724 159.382 1.1724 167.533 1.17422C168.618 1.17422 169.133 1.69092 169.138 2.77162C169.144 3.99605 169.088 5.22412 169.155 6.44674C169.216 7.54745 168.894 8.48807 168.283 9.365C167.024 11.1753 165.77 12.9874 164.509 14.7958C161.268 19.4461 158.023 24.0964 154.78 28.7467C154.686 28.8813 154.599 29.0214 154.437 29.2652C154.742 29.2652 154.965 29.2652 155.189 29.2652C159.121 29.2652 162.962 29.7801 166.604 31.3648C167.229 31.6377 167.834 31.9597 168.443 32.2672C169.396 32.7475 169.865 33.5626 169.881 34.6014C169.912 36.5136 169.908 38.4257 169.883 40.3379C169.867 41.5459 168.894 42.1099 167.825 41.5969C159.226 37.4706 150.632 37.4451 142.046 41.6387C141.115 42.0936 140.115 41.6405 140.099 40.6253C140.059 38.2147 140.093 35.8022 140.162 33.3915C140.191 32.3509 140.666 31.4394 141.26 30.5843C145.982 23.8035 150.69 17.0136 155.403 10.2256C155.542 10.0272 155.673 9.82894 155.872 9.53602Z" fill="white"/>
<path d="M151.104 49.5549C147.886 49.8551 144.668 50.1516 141.452 50.4573C140.914 50.5082 140.352 50.6465 140.041 50.0279C139.84 49.6295 140.151 49.0509 140.776 48.607C142.713 47.2316 144.851 46.2818 147.136 45.6833C151.95 44.4225 156.798 44.175 161.656 45.4013C163.853 45.9562 164.272 46.5293 164.248 48.7962C164.208 52.7752 163.141 56.5194 161.529 60.1199C160.188 63.111 158.416 65.8055 155.918 67.9632C155.619 68.2216 155.254 68.4545 154.881 68.5691C154.167 68.7892 153.718 68.318 153.896 67.5921C153.952 67.3592 154.048 67.1354 154.135 66.9116C155.508 63.393 156.932 59.8871 157.733 56.1792C157.988 54.993 158.106 53.7613 158.142 52.5477C158.181 51.3033 157.67 50.6938 156.486 50.2772C154.744 49.6622 152.923 49.7241 151.104 49.5549Z" fill="white"/>
</svg>
