<svg width="106" height="105" viewBox="0 0 106 105" fill="none" xmlns="http://www.w3.org/2000/svg">
<path d="M53.0836 104.968C24.3081 105.013 1.29469 81.6644 0.796756 53.4813C0.275503 24.0073 24.0067 -0.0150435 53.1103 7.06828e-06C81.8908 0.0150576 105.229 23.3819 105.352 52.376C105.475 81.3032 82.024 105.006 53.0836 104.968ZM53.1153 100.541C79.5077 100.548 100.859 79.0523 100.944 52.682C101.027 26.1529 79.8374 4.66568 53.5483 4.4416C26.4797 4.20915 5.42975 26.0057 5.20493 52.0649C4.97344 78.8884 26.6129 100.605 53.1153 100.541Z" fill="white"/>
<path d="M60.5727 40.7391C60.5727 41.3595 60.5727 41.8812 60.5727 42.4013C60.5693 48.0587 60.5643 53.7143 60.5643 59.3717C60.5643 60.4687 60.5927 60.4954 61.6768 60.4971C64.9242 60.5005 68.17 60.4971 71.4174 60.4954C72.5382 60.4938 72.5382 60.4921 72.5415 61.6527C72.5432 62.4855 72.5415 63.3183 72.5415 64.2447C72.1735 64.2631 71.8804 64.2898 71.5873 64.2898C66.6762 64.2949 61.7634 64.2832 56.8523 64.3116C56.1678 64.3149 55.9347 64.126 55.9497 63.4219C55.9913 61.5005 55.9647 59.5774 55.9647 57.6542C55.9647 57.3549 55.9647 57.0539 55.9647 56.7545C55.8931 56.701 55.8214 56.6492 55.7498 56.5957C51.6864 59.7847 47.6229 62.9738 43.4796 66.2264C39.999 62.5858 36.5401 58.9653 32.9313 55.1926C32.7714 55.8147 32.6581 56.2528 32.5449 56.6927C31.5707 60.4854 29.5056 63.2346 25.4655 64.0173C24.493 64.2062 23.4838 64.2664 22.4895 64.2798C19.6868 64.3149 16.884 64.2781 14.0812 64.3082C13.46 64.3149 13.2652 64.1193 13.2669 63.4989C13.2835 56.1425 13.2852 48.7861 13.2669 41.428C13.2652 40.7541 13.525 40.5651 14.1512 40.5718C17.4802 40.6069 20.8125 40.5651 24.1399 40.6437C28.0418 40.7357 31.1377 43.311 32.3234 47.3279C32.4067 47.6122 32.5016 47.8931 32.6348 48.3112C36.7233 45.1021 40.7101 41.9715 44.7152 38.8276C45.8277 39.9832 46.9152 41.1137 48.0759 42.321C44.0824 45.4582 39.999 48.6657 35.8456 51.9266C36.5917 52.7109 37.2279 53.4417 37.944 54.0822C38.0988 54.221 38.6267 54.1441 38.8399 53.9802C41.1747 52.1875 43.4796 50.3564 45.7944 48.5369C47.4098 47.2677 49.0252 46.0017 50.6788 44.704C51.783 45.8512 52.8704 46.9817 54.0345 48.1924C49.9694 51.3848 45.8527 54.619 41.6294 57.9352C42.2355 58.5957 42.7651 59.2245 43.3663 59.7764C43.4746 59.875 43.9275 59.7245 44.129 59.569C46.239 57.9402 48.3324 56.2863 50.429 54.6374C52.1094 53.3163 53.7997 52.0103 55.4501 50.6507C55.7199 50.4283 55.9347 49.9717 55.9397 49.6206C55.978 46.9466 55.978 44.2709 55.943 41.5953C55.9347 40.8979 56.1379 40.6789 56.8456 40.719C58.0347 40.7876 59.2271 40.7391 60.5727 40.7391ZM17.8632 52.4701C17.8632 54.8364 17.8865 57.2027 17.8482 59.569C17.8382 60.2429 18.0148 60.5339 18.7192 60.5038C20.3795 60.4352 22.0482 60.4854 23.7019 60.3449C25.5238 60.1894 26.8811 59.2897 27.5006 57.4602C28.5014 54.5036 28.5131 51.4885 27.812 48.4985C27.354 46.5486 26.2299 44.6806 23.1324 44.5301C21.6669 44.4582 20.198 44.4599 18.7342 44.3729C18.0181 44.3311 17.8449 44.6171 17.8549 45.2877C17.8849 47.6807 17.8649 50.0754 17.8632 52.4701Z" fill="white"/>
<path d="M92.8988 64.2628C87.3399 64.2628 81.9125 64.2628 76.3936 64.2628C76.3936 56.4583 76.3936 48.6855 76.3936 40.8291C77.8474 40.8291 79.3229 40.8291 80.8817 40.8291C80.8983 41.085 80.9283 41.3525 80.9283 41.6201C80.9233 47.5233 80.9116 53.4264 80.9083 59.3296C80.9083 60.5019 80.92 60.5035 82.0507 60.5019C85.3231 60.5002 88.5956 60.5219 91.8663 60.4818C92.6623 60.4718 92.9654 60.7076 92.9105 61.5203C92.8538 62.4032 92.8988 63.2946 92.8988 64.2628Z" fill="white"/>
</svg>
