<svg width="120" height="77" viewBox="0 0 120 77" fill="none" xmlns="http://www.w3.org/2000/svg">
<path d="M42.0146 35.9346C40.341 37.9634 38.65 40.0141 36.7857 42.2737C32.5844 38.2856 27.8367 35.9085 21.9271 37.0796C18.1507 37.8285 15.1114 39.7441 12.8698 42.8963C8.35196 49.2528 9.24513 58.7615 14.9249 63.9425C19.9327 68.5097 28.7212 70.1641 36.764 62.2402C38.5113 64.3605 40.2456 66.4677 41.9669 68.5532C36.9678 75.8545 27.0303 78.6366 17.0278 75.6063C7.0816 72.5935 0.651711 63.9687 0.473946 53.4064C0.274502 41.5074 5.96298 32.7084 16.1086 29.2036C26.2195 25.7119 36.3044 28.298 42.0146 35.9346Z" fill="white"/>
<path d="M96.0335 65.8405C95.2314 68.9578 95.0449 71.9489 93.6575 74.2041C92.8294 75.5538 90.1759 76.1416 88.2552 76.3854C79.6748 77.4695 74.6193 72.8457 74.5976 64.1338C74.5803 56.088 74.5933 48.0422 74.5933 39.9964C74.5933 39.2083 74.5933 38.4203 74.5933 37.3493C71.8358 37.3493 69.2127 37.3493 66.4768 37.3493C66.4768 34.3495 66.4768 31.6327 66.4768 28.6635C69.0826 28.6635 71.645 28.6635 74.5933 28.6635C74.5933 26.43 74.8274 24.4054 74.5369 22.4593C74.1034 19.5292 75.274 17.9488 77.8884 16.9082C79.8135 16.1419 81.5868 15.0012 83.7937 13.8301C83.7937 18.8152 83.7937 23.5956 83.7937 28.5851C87.2189 28.5851 90.293 28.5851 93.5404 28.5851C93.5404 31.5152 93.5404 34.232 93.5404 37.1882C90.423 37.1882 87.2796 37.1882 84.1969 37.1882C84.0408 37.6192 83.9064 37.8151 83.9064 38.0154C83.9194 46.6403 83.8544 55.2651 84.0148 63.8856C84.0755 67.1379 86.3951 68.7184 89.6686 68.1567C90.7265 67.9739 91.7758 67.6691 92.7903 67.3121C93.7269 66.9768 94.6113 66.4936 96.0335 65.8405Z" fill="white"/>
<path d="M41.5768 20.444C51.2021 7.56982 63.4635 0.568918 78.8207 0.0334019C95.6216 -0.55436 108.967 6.6294 119.568 20.4353C115.601 20.4353 112.24 20.4832 108.889 20.3874C108.36 20.37 107.801 19.7517 107.337 19.3251C91.2902 4.56135 69.655 4.59618 53.6128 19.4078C53.1575 19.8301 52.5722 20.3874 52.0346 20.4048C48.7567 20.4919 45.4703 20.444 41.5768 20.444Z" fill="white"/>
<path d="M48.1281 75.8193C48.1281 60.0891 48.1281 44.5112 48.1281 28.7505C51.2021 28.7505 54.1894 28.7505 57.3371 28.7505C57.3371 44.398 57.3371 60.0281 57.3371 75.8193C54.3498 75.8193 51.3668 75.8193 48.1281 75.8193Z" fill="white"/>
<path d="M113.355 75.8723C110.276 75.8723 107.285 75.8723 104.159 75.8723C104.159 60.1377 104.159 44.5163 104.159 28.7251C107.22 28.7251 110.211 28.7251 113.355 28.7251C113.355 44.3596 113.355 59.9897 113.355 75.8723Z" fill="white"/>
</svg>
