<svg width="226" height="76" viewBox="0 0 226 76" fill="none" xmlns="http://www.w3.org/2000/svg">
<path d="M30.6657 28.4689C30.6657 28.9218 30.7161 29.2259 30.6594 29.5109C29.8929 33.3277 31.5804 35.9155 34.7473 37.7653C36.2425 38.6395 37.7912 39.4314 39.2296 40.3943C39.9835 40.8979 40.7973 41.5789 41.1253 42.3708C41.4124 43.0581 41.3619 44.3441 40.9077 44.7717C40.3557 45.2912 39.1381 45.478 38.3716 45.2531C37.8354 45.0948 37.2929 44.0305 37.2329 43.3273C37.0216 40.8219 37.2992 41.126 34.7757 41.1006C34.0408 41.0911 33.3027 41.0975 32.5677 41.1038C30.1894 41.126 30.1515 41.1703 30.3219 43.6187C30.5269 46.536 31.9179 48.6106 34.7095 49.5704C37.7408 50.6093 40.8225 50.5396 43.838 49.545C49.1278 47.7998 48.989 39.292 45.4183 37.0843C43.7655 36.0644 42.0937 35.073 40.4409 34.0531C39.5955 33.5304 38.7501 33.0046 37.9426 32.4313C37.0058 31.7693 36.7472 30.8571 37.2014 29.7928C37.6146 28.8236 38.4189 28.5702 39.3873 28.7349C40.526 28.9281 41.0212 29.7453 40.9519 30.7716C40.8509 32.2191 41.5669 32.4503 42.7624 32.3743C43.8601 32.3046 44.9704 32.33 46.0713 32.3775C47.0365 32.4218 47.3235 31.9974 47.3645 31.063C47.5254 27.4363 45.8757 25.2634 42.3303 24.5697C41.7688 24.4589 41.2073 24.3702 40.2579 24.2055C43.3018 23.0304 45.9861 21.8616 48.7524 20.9525C56.43 18.4281 64.0792 15.7864 71.8545 13.604C87.0709 9.33432 102.527 6.12253 118.179 3.87365C130.502 2.09988 142.861 0.744214 155.311 0.26593C166.714 -0.171178 178.113 -0.177513 189.459 1.08313C197.755 2.00486 206.038 3.28134 213.748 6.72752C216.536 7.97549 219.353 9.5022 221.624 11.5135C226.434 15.7706 226.772 20.924 223.125 26.5272C220.198 31.025 216.186 34.4585 211.782 37.325C207.127 40.3563 202.178 42.9282 197.352 45.6934C197.099 45.8391 196.803 45.9025 196.68 45.95C196.68 42.4816 196.68 39.0513 196.68 35.5544C193.973 35.5544 191.216 35.5544 188.346 35.5544C188.346 36.8214 188.346 38.006 188.346 39.292C188.993 39.3427 189.658 39.3934 190.475 39.4567C190.475 40.8314 190.589 42.1966 190.44 43.5301C190.308 44.7495 189.299 45.1074 188.21 45.0346C187.157 44.9649 186.185 44.6133 186.132 43.3305C186.059 41.6454 186.075 39.954 186.072 38.2658C186.069 35.9979 186.047 33.7268 186.103 31.4589C186.144 29.8625 186.87 29.1213 188.251 29.0928C189.601 29.0643 190.5 29.8467 190.456 31.3797C190.415 32.8748 191.081 33.1535 192.349 33.0521C193.497 32.9635 194.674 33.125 195.809 32.9761C196.216 32.9223 196.834 32.2983 196.863 31.896C197.15 27.8797 195.039 25.105 191.071 24.6204C189.024 24.3702 186.86 24.4399 184.838 24.8295C181.653 25.4439 179.845 27.734 179.76 30.9965C179.653 35.1078 179.662 39.2287 179.754 43.3432C179.82 46.3459 181.485 48.3731 184.375 49.2156C185.419 49.5197 186.501 49.6844 188.012 50.0075C185.558 50.9831 183.46 51.8319 181.35 52.6523C165.749 58.7179 149.671 63.1745 133.338 66.6809C117.876 69.9972 102.262 72.3823 86.5031 73.8045C73.9301 74.9416 61.3444 75.3534 48.7335 74.8909C39.6901 74.5583 30.713 73.6176 21.903 71.4827C16.9508 70.2823 12.0648 68.7841 7.70551 66.0031C6.47533 65.2175 5.27355 64.337 4.22632 63.3234C-0.013063 59.2216 -0.470437 53.989 2.74695 48.9907C5.5669 44.6133 9.40253 41.3223 13.5567 38.3323C18.8938 34.4902 24.6441 31.3861 30.6657 28.4689ZM95.6947 29.6408C95.761 29.6376 95.8304 29.6376 95.8966 29.6345C95.8966 34.9083 95.8903 40.1821 95.8998 45.4559C95.9061 49.3011 95.9156 49.3011 99.666 49.3265C100.086 49.3296 100.505 49.3391 100.928 49.3518C101.906 49.3803 102.316 48.9622 102.287 47.9265C102.101 40.654 101.95 33.3784 101.811 26.1028C101.795 25.2096 101.451 24.9277 100.568 24.9467C98.1015 24.9973 95.6285 25.01 93.1618 24.9277C92.0231 24.8896 91.5815 25.3046 91.427 26.4164C91.0043 29.4919 90.4807 32.5549 89.9981 35.6241C89.6669 37.7305 89.3325 39.84 88.9982 41.9463C87.9446 36.7866 87.1119 31.6553 86.3454 26.5114C86.1719 25.3426 85.7019 24.9023 84.5001 24.9435C82.1912 25.0258 79.8759 25.0163 77.567 24.9277C76.321 24.8801 75.9425 25.3077 75.9331 26.5557C75.8731 33.0395 75.728 39.5264 75.6176 46.0102C75.5987 47.0459 75.6145 48.0848 75.6145 49.317C77.4408 49.317 79.1662 49.3772 80.879 49.2631C81.2133 49.241 81.737 48.5568 81.7717 48.145C81.8852 46.7292 81.819 45.3007 81.8221 43.8753C81.8221 39.4567 81.8221 35.0381 81.8221 30.6196C81.9483 30.6069 82.0745 30.5974 82.2038 30.5847C82.2827 30.9268 82.3773 31.2657 82.4404 31.611C83.2416 36.0169 84.0491 40.4228 84.8376 44.8319C85.642 49.3296 85.6357 49.2758 90.2157 49.3645C91.6478 49.3898 92.225 48.9305 92.4679 47.5052C93.4836 41.5441 94.6097 35.5956 95.6947 29.6408ZM159.56 31.2562C159.645 31.3544 159.749 31.4209 159.778 31.5128C161.421 36.9576 163.074 42.3993 164.676 47.8536C164.938 48.7437 165.291 49.1871 166.291 49.1523C168.285 49.0794 170.288 49.0731 172.281 49.1491C173.508 49.1934 173.902 48.788 173.893 47.521C173.836 40.502 173.874 33.4798 173.868 26.4607C173.868 26.0078 173.795 25.558 173.745 24.9593C172.095 24.9593 170.575 25.0512 169.067 24.9308C167.808 24.8326 167.635 25.2507 167.657 26.4512C167.752 31.6395 167.698 36.8277 167.698 42.111C167.619 41.8862 167.553 41.7151 167.499 41.5377C166.033 36.4762 164.541 31.4209 163.131 26.3403C162.837 25.2824 162.361 24.8896 161.276 24.9277C159.229 25.0037 157.175 25.01 155.128 24.9403C153.933 24.8991 153.494 25.2191 153.507 26.524C153.573 33.5431 153.535 40.5653 153.545 47.5844C153.545 48.0373 153.623 48.4903 153.674 49.0224C155.712 49.0224 157.62 49.0224 159.557 49.0224C159.56 43.0233 159.56 37.1255 159.56 31.2562ZM140.937 24.9467C140.937 25.7829 140.937 26.3498 140.937 26.92C140.937 32.2476 140.943 37.5753 140.927 42.9029C140.921 44.683 139.584 45.7314 138.048 45.1771C136.953 44.7844 136.638 43.926 136.641 42.8015C136.666 37.3694 136.653 31.934 136.644 26.5019C136.644 25.8019 136.887 24.9277 135.669 24.953C134.199 24.9815 132.72 24.8833 131.263 25.0227C130.872 25.0607 130.234 25.7512 130.228 26.1471C130.165 31.9499 130.121 37.7526 130.222 43.5522C130.279 46.8084 132.24 49.1174 135.335 49.6749C137.022 49.979 138.795 50.1088 140.502 49.9726C144.75 49.6337 147.154 47.4133 147.261 43.4984C147.422 37.702 147.337 31.896 147.274 26.0933C147.271 25.7068 146.605 25.029 146.208 24.9973C144.549 24.877 142.87 24.9467 140.937 24.9467ZM118.229 32.4282C120.197 32.4282 121.97 32.463 123.736 32.3933C124.014 32.3838 124.446 31.9404 124.512 31.6363C125.128 28.7508 123.396 25.7544 120.544 24.9372C117.933 24.1865 115.292 24.1548 112.614 24.8295C108.561 25.8494 107.422 29.5331 107.959 32.6404C108.473 35.6241 110.769 37.0305 113.081 38.4305C114.693 39.406 116.396 40.2866 117.81 41.5029C118.396 42.0065 118.56 43.283 118.485 44.173C118.447 44.6323 117.519 45.2341 116.901 45.3862C115.387 45.7631 114.482 44.7242 114.39 42.8237C114.356 42.1332 114.8 41.0816 113.469 41.069C111.589 41.0499 109.709 41.0626 107.735 41.0626C107.735 42.0572 107.678 42.8966 107.744 43.7233C107.937 46.1337 108.908 48.0627 111.22 49.1111C114.289 50.5016 117.504 50.584 120.607 49.5577C125.519 47.936 126.888 41.0119 123.002 37.5689C121.491 36.2323 119.592 35.3422 117.892 34.2114C116.81 33.4893 115.624 32.8336 114.775 31.8834C114.381 31.4431 114.384 30.1603 114.75 29.6566C115.119 29.1499 116.232 28.8394 116.882 29.001C117.431 29.1372 117.876 30.0272 118.191 30.6671C118.38 31.0472 118.229 31.5951 118.229 32.4282ZM61.3286 28.3643C62.297 35.073 63.196 41.3794 64.1391 47.6794C64.2211 48.2242 64.5902 49.1554 64.8741 49.1744C66.8802 49.3043 68.9021 49.2441 70.8862 49.2441C70.9556 48.8229 71.025 48.6645 70.9997 48.5188C69.6465 41.0056 68.3059 33.4924 66.8771 25.9951C66.7982 25.577 65.9718 25.0227 65.4797 25.0068C62.6976 24.9118 59.9124 25.0037 57.1303 24.9403C56.042 24.915 55.6604 25.3616 55.5184 26.372C55.2787 28.0888 54.938 29.7928 54.6226 31.4969C53.6069 36.9829 52.5975 42.4721 51.5503 47.9518C51.3642 48.9337 51.6607 49.3391 52.6417 49.3201C53.9539 49.298 55.2724 49.2473 56.5814 49.3328C57.8558 49.4152 58.2721 48.8862 58.4488 47.6477C59.3351 41.3445 60.3193 35.0571 61.3286 28.3643Z" fill="white"/>
</svg>
